<?xml version="1.0" encoding="utf-8"?>
<!-- Generator: Adobe Illustrator 27.2.0, SVG Export Plug-In . SVG Version: 6.00 Build 0)  -->
<svg version="1.1" id="Camada_1" xmlns="http://www.w3.org/2000/svg" xmlns:xlink="http://www.w3.org/1999/xlink" x="0px" y="0px"
	 viewBox="0 0 1000 1000" style="enable-background:new 0 0 1000 1000;" xml:space="preserve">
<style type="text/css">
	.st0{fill:#EFEFEF;}
	.st1{fill:#FFD55D;stroke:#000000;stroke-width:27;stroke-linecap:round;stroke-linejoin:round;stroke-miterlimit:10;}
	.st2{fill:#4A4B4C;}
	.st3{fill:#393A3A;}
	.st4{display:none;fill:#393A3A;}
	.st5{fill:#494A4B;stroke:#000000;stroke-width:27;stroke-linecap:round;stroke-linejoin:round;stroke-miterlimit:10;}
	.st6{fill:#383939;}
	.st7{fill:#FFD55D;stroke:#000000;stroke-width:10;stroke-linecap:round;stroke-linejoin:round;stroke-miterlimit:10;}
</style>
<circle class="st0" cx="501.28" cy="499.28" r="421.32"/>
<g>
	<path class="st1" d="M487.39,201.62c2.04-2.53,19.07-22.91,46.37-21.56c31.29,1.56,46.85,30.24,47.73,31.94
		c59.24,132.35,118.48,264.7,177.73,397.05c7.63,17.06,15.27,34.11,22.9,51.17l21.93,49.81c-41.46-20.69-62.29-28.06-62.29-28.06
		l-9.54,41.15l-49.43-21.24L656.96,739l-423.44-47.96c0,0-101.87-2.43-43.43-93.04c7.41-9.88,222.12-135.63,222.12-135.63
		l10.38-174.37C422.59,288.01,478.25,213.8,487.39,201.62z"/>
	<path class="st2" d="M509.58,316.22c7.47,0.84,14.95,1.65,22.42,2.54c6.81,0.81,10.83,5.73,10.15,12.54
		c-6.71,67.19-13.43,134.39-20.24,201.57c-0.13,1.28,1.05,3.56-1.73,3.74c-5.66,0.41-10.6-2.95-16.13-3.26
		c-0.61-0.04-1.25-0.42-1.8-0.77c-4.2-2.64-7.76-5.94-9.79-10.52c-1.72-3.88-2.82-7.76-2.36-12.25
		C496.7,445.29,503.11,380.75,509.58,316.22z"/>
	<path class="st3" d="M511.31,317.41l-13.25-2.45l-8.04,32.97L473,530.74l17.02,8.26h20.57l11.41-4.26l1.96-5.11
		c0,0-28.61,3.78-30.28-10.56C492,504.74,494,486.74,494,486.74L511.31,317.41"/>
	<path class="st4" d="M502.94,528.22c5.01,0.27,9.47,3.48,14.6,3.05c-1.51,3.97-1.96,8.07-5.53,7.73c-8.06-0.75-18.98-1.9-27-3
		c-3.85-0.53-6.75-7.2-6.67-11.39c0.02-0.9,0.17-1.8,0.26-2.7c6.46-64.26,12.95-128.51,19.32-192.77c0.54-5.47,3.01-8.79,7.75-10.36
		c1.12-0.37,2.43-0.09,3.66-0.11c-6.26,62.31-12.49,124.63-18.88,186.93c-0.44,4.33,0.53,8.08,2.06,11.81"/>
	<path d="M549.37,432.12c-3.23,32.15-6.43,64.3-9.72,96.44c-0.94,9.13-4.24,17-11.48,22.63c-2.84,2.21-5.32,5.52-8.77,6.04
		c-4.75,0.71-9.39,2.51-14.46,1.42c-5.61-1.2-11.4-1.7-17.14-1.99c-5.26-0.27-9.98-2.05-14.53-4.52c-1.92-1.04-3.83-2.49-5.18-4.24
		c-2.62-3.39-5.65-6.46-7.23-10.76c-1.21-3.29-3.27-11.07-2.97-14.1c6.68-66.55,13.37-133.09,20.07-199.63
		c0.37-3.72,4.54-12.95,7.45-15.65c3.6-3.34,7.11-7.14,11.72-8.72c3.72-1.28,7.58-2.73,11.67-2.27c8.47,0.94,17.01,1.48,25.39,3.02
		c6.13,1.12,12.05,3.54,16.04,9.26c1.87,2.68,4,5.2,5.49,8.1c2.94,5.74,4.08,11.9,3.39,18.54
		C555.78,367.82,552.61,399.97,549.37,432.12z M518,531c1.47-2.27,1-2.12,1.12-3.36c6.59-64.87,13.11-129.75,19.62-194.63
		c0.66-6.57-2.95-11.3-9.12-12.04c-6.76-0.81-13.54-1.54-20.3-2.31c-1.22,0.02-2.54-0.26-3.66,0.11c-4.74,1.57-7.21,4.89-7.75,10.36
		c-6.37,64.27-12.86,128.52-19.32,192.77c-0.09,0.9-0.24,1.8-0.26,2.7c-0.08,4.19,3.51,9.3,7.36,9.82
		c8.02,1.1,16.07,1.99,24.13,2.74C513.39,537.5,516.49,534.97,518,531z"/>
	<circle class="st5" cx="488.5" cy="624.5" r="34"/>
	<path class="st6" d="M488.5,603.79c0,0-20.5,18.64,0,40.93c0,0-20.93-0.21-20.71-20.46C468,604,488.5,603.79,488.5,603.79z"/>
</g>
<polygon class="st1" points="193.3,533.64 359.99,437.47 373.48,303.27 "/>
<polyline class="st7" points="701.14,479.34 666.39,515.22 589.44,546.31 "/>
<line class="st7" x1="655.17" y1="592.59" x2="644.24" y2="529.56"/>
<polyline class="st7" points="313.51,578.7 337.62,633.26 317.25,701.88 "/>
<line class="st7" x1="387.83" y1="677.62" x2="332.32" y2="652.38"/>
</svg>
