<?xml version="1.0" encoding="utf-8"?>
<!-- Generator: Adobe Illustrator 27.2.0, SVG Export Plug-In . SVG Version: 6.00 Build 0)  -->
<svg version="1.1" id="Camada_1" xmlns="http://www.w3.org/2000/svg" xmlns:xlink="http://www.w3.org/1999/xlink" x="0px" y="0px"
	 viewBox="0 0 1000 1000" style="enable-background:new 0 0 1000 1000;" xml:space="preserve">
<style type="text/css">
	.st0{fill:#EFEFEF;}
	.st1{fill:#8795DF;}
	.st2{fill:#6B7ED9;}
	.st3{fill:#040404;}
	.st4{fill:#010101;}
	.st5{fill:#FFF1AB;}
	.st6{fill:#020202;}
	.st7{fill:#FFDD7D;}
	.st8{fill:#DBEDFF;}
	.st9{fill:#B5DCFF;}
	.st10{fill:#8BCAFF;}
	.st11{fill:#F9DA2E;}
	.st12{fill:#FCDD2E;}
	.st13{fill:#030301;}
	.st14{fill:#6F6214;}
	.st15{fill:#A9CDEE;}
	.st16{fill:none;stroke:#010101;stroke-width:19;stroke-linecap:round;stroke-linejoin:round;stroke-miterlimit:10;}
	.st17{fill:#FFF1AB;stroke:#000000;stroke-width:12;stroke-linecap:round;stroke-linejoin:round;stroke-miterlimit:10;}
</style>
<circle class="st0" cx="501.28" cy="499.28" r="421.32"/>
<g>
	<path class="st1" d="M507.75,771.08c-4.36,10.33-8.67,20.68-13.11,30.97c-1,2.31-2.41,4.44-3.63,6.65
		c-5.5,1.11-9.33-0.92-12.87-5.48c-7.47-9.65-12.53-20.35-16.14-32.14C477.51,771.08,492.63,771.08,507.75,771.08z"/>
	<path class="st2" d="M506.79,771.08c16.61,0,33.22,0,50.21,0c-3.13,12.41-8.49,23.27-16.27,32.59c-2.39,2.86-7.19,4.92-10.98,5.07
		c-13.23,0.54-26.49,0.08-39.74,0c1.23-2.21,2.64-4.34,3.64-6.66C498.09,791.78,502.42,781.42,506.79,771.08z"/>
	<path d="M614.79,681.43c-0.4-5.65-1.74-11.24-2.54-16.87c-0.17-1.16,0.12-2.43,0.38-3.61c0.7-3.22,2.04-6.4,2.16-9.63
		c0.31-8.3-0.08-16.63,0.16-24.94c0.19-6.69-0.95-13.39-7.7-15.63c-3.52-2.47-7.54-4.23-12.75-7.05c-5.74-0.38-11.52-1.72-17.09-3.1
		c-0.13,0.38-0.28,0.76-0.41,1.14c-0.5,1.47-2.54,3.38-3.91,3.42c-9.49,0.3-18.98,0.16-29.31,0.16V572.8
		c-0.01-0.55-0.02-1.09-0.03-1.64c-0.02-0.37,0.12-0.68,0.4-0.92c-3.16-14.65,3.81-25.77,12.58-36.3
		c4.84-5.81,9.57-11.71,14.35-17.57l1.14-0.99c6.27-12.11,8.7-24.93,8.24-38.58c-0.48-14.37,0.01-28.77-0.2-43.16
		c-0.05-3.14,0.91-4.88,3.77-5.65c4.87-1.32,8.06-4.63,7.49-9.45c-0.52-4.43-3.13-8.09-8.83-8.17c-1.05-0.01-2.77-3.31-2.96-5.22
		c-0.49-4.88-3.22-8.26-7.48-8.8c-2.8-0.36-6.9,1.39-8.72,3.59c-1.77,2.14-1.39,6.07-2.05,9.71h-99.51c-1.91,0-3.57-1.29-4.07-3.12
		c-2.34-8.54-4.71-10.9-9.79-10.52c-5.84,0.44-8.2,4.16-8.86,14.41c-6.04-0.41-10.65,1.43-10.63,8.59c0.01,4.38,1.52,7.72,6.31,8.91
		c1.71,0.42,3.24,1.63,4.84,2.48l0.23,0.35l-0.24,0.35c0.07,17.64-0.1,35.29,0.33,52.93c0.2,8.23,0.89,16.19,4.52,24.32
		c3.88,8.68,10.62,14.59,15.6,22.06c5.45,8.18,13.32,14.89,15.23,25.2c0.22,1.18,0.69,2.34,0.69,3.52
		c0.05,15.17,0.03,30.34,0.03,45.86h-29.45c-0.76,0.07-1.53,0.11-2.3,0.11c-1.84,0-3.61-0.18-5.33-0.52
		c-3.44,0.64-7.06,0.62-10.58-0.03c-1.22,0.25-2.47,0.42-3.72,0.5c-1.9,0.64-3.43,1.35-5.03,1.62c-6.31,1.07-15.65,9.34-15.33,15.44
		c0.71,13.47-3.26,27.28,2.55,40.45c0.43,0.98-0.23,2.43-0.38,3.67c-0.83,1.27-1.88,2.42-2.15,3.79C401,688,403,701,405,709
		c0,0.28,0.47,0.55,0.47,0.83c6.28,5.86,11.89,12.84,21.91,12.74c0,6.96-0.34,13.61,0.11,20.21c0.34,5.01,1.67,9.95,2.56,14.92
		c0.31,0.44,0.63,0.89,0.94,1.33c0,0.39,0.09,0.75,0.26,1.1c0.33,0.41,0.66,0.82,1,1.22c3.69,2.83,7.39,5.63,11.04,8.51
		c0.88,0.7,2.08,1.52,2.28,2.47c2.79,13.34,8.91,25.18,16.2,36.51l0.9,0.95c4.72,7.29,11.89,11.36,19.5,14.86h54.79
		c5.18-3.35,11.19-5.9,15.37-10.22c10.89-11.26,16.74-25.49,21.23-40.31c0.49-1.63,1.59-3.69,2.98-4.35
		c11.61-5.48,15.6-15,15.28-27.15c-0.19-7.05-0.03-14.1-0.03-21.27c1.31-0.09,2.09-0.18,2.86-0.19
		c11.48-0.19,20.25-8.97,20.24-20.27C614.89,694.41,615.24,687.89,614.79,681.43z M464.4,506.55c-3.96-5.34-6.24-11.28-6.13-18.32
		c0.32-19.64,0.11-39.3,0.11-59.38h103.39c0.11,1.89,0.3,3.65,0.31,5.41c0.02,14.81-0.55,29.65,0.17,44.43
		c0.74,15.09-5.43,26.73-14.63,37.95c-7.12,8.69-13.45,18.21-18.82,28.07c-2.59,4.76-2.82,11.13-3.02,16.81
		c-0.44,12.97-0.31,25.97-0.14,38.95c0.05,3.7-1.18,5.11-4.84,5.06c-8.31-0.13-16.62-0.04-25.63-0.04
		c-0.13-2.13-0.34-4.05-0.35-5.97c-0.03-11.77,0.45-23.56-0.2-35.29c-0.37-6.59-2.57-13.07-3.95-19.61c-0.83-0.8-1.66-1.61-2.5-2.41
		c-1.75-4.03-2.87-8.5-5.37-11.99C476.99,522.09,470.35,514.57,464.4,506.55z M422.6,630.36c-0.66-5.11,0.78-6.79,4.85-6.78
		c40.56,0.13,81.13,0.19,121.69,0.27c14.19-0.08,28.38-0.11,42.56-0.29c3.89-0.05,5.26,1.53,4.95,5.76
		c-0.45,6.22-0.69,12.48-0.05,18.68c0.49,4.71-0.89,6.32-4.9,6.27c-14.19-0.17-28.38-0.18-42.57-0.26
		c-40.57,0.07-81.13,0.11-121.7,0.26c-4.08,0.01-5.41-1.56-4.88-6.41C423.19,642.04,423.35,636.16,422.6,630.36z M539.83,801.44
		c-2.26,2.67-6.8,4.58-10.39,4.73c-12.51,0.5-25.05,0.07-37.58,0c-5.22,1.03-8.85-0.86-12.2-5.11c-7.09-9-11.89-18.98-15.31-29.98
		h90.86C552.26,782.64,547.19,792.76,539.83,801.44z M573.22,748.28c-0.09,1.51-3.47,4.01-5.36,4.04
		c-14.37,0.25-28.74-0.01-43.12-0.11h-77.68v-30.65c3.14,0,6.11-0.01,9.09,0c22.86,0.12,45.73,0.24,68.59,0.37h48.73
		C573.48,730.67,573.74,739.5,573.22,748.28z M596.56,696.61c0.55,4.75-0.81,6.75-4.88,6.7c-14.18-0.15-28.35-0.23-42.53-0.34
		c-17.24,0.11-34.47,0.27-51.71,0.32c-21.31,0.06-42.62-0.01-63.92,0.02c-12.7,0.02-10.97,0.23-11.01-11.3
		c-0.01-3.45-0.13-6.91,0.03-10.35c0.25-5.6,3.57-9.12,9.13-9.12c38.76-0.02,77.51,0.09,116.27,0.15c0.41,0,0.82-0.01,1.23-0.01
		c14.18-0.06,28.37-0.07,42.55-0.21c4.13-0.04,5.52,1.69,4.8,6.93C595.75,685.1,595.9,690.89,596.56,696.61z"/>
	<path class="st3" d="M484.61,824.66c1.22,0,2.44,0,3.65,0C487.04,824.66,485.83,824.66,484.61,824.66z"/>
	<path class="st4" d="M563.49,207.32c-0.76-0.02-1.52-0.03-2.28-0.05C561.97,207.29,562.73,207.3,563.49,207.32z"/>
	<path class="st5" d="M544,571c-3.16-14.65,4.83-27.5,13-38c5.41-6.95,9-11,15-17c-3,2,2.62-4.67,3-5c4-12,5-21,5-34
		c-0.48-14.37,1.34-28.97,1.12-43.36c-0.05-3.14,0.91-4.88,3.77-5.65c4.87-1.32,8.06-4.63,7.49-9.45c-0.52-4.43-3.13-8.09-8.83-8.17
		c-1.05-0.01-2.77-3.31-2.96-5.22c-0.49-4.88-3.22-8.26-7.48-8.8c-2.8-0.36-6.9,1.39-8.72,3.59c-1.77,2.14-1.39,6.07-2.05,9.71
		H459.55c-2.63-11.1-4.93-14.07-10.58-13.64c-5.84,0.44-8.2,4.16-8.86,14.41c-6.04-0.41-10.65,1.43-10.63,8.59
		c0.01,4.38,1.52,7.72,6.31,8.91c1.71,0.43,3.24,1.63,4.84,2.48c-0.31,0.18-0.61,0.35-0.91,0.53c0.3,0.06,0.61,0.11,0.91,0.17
		c0.07,17.64-0.1,35.29,0.33,52.93c0.2,8.23,0.89,16.19,4.52,24.32c3.88,8.68,10.62,14.59,15.6,22.06
		c5.45,8.18,13.32,14.89,15.23,25.2c0.22,1.18,0.69,2.34,0.69,3.52c0.05,15.17,0.03,30.34,0.03,45.86h-32.58
		c-1.73-5.36-3.51-10.91-5.3-16.47c-0.71-0.84-1.42-1.68-2.13-2.52c-9.44-23.15-24.17-42.18-43.14-58.51
		c-9.99-8.6-18.91-18.81-26.66-29.5c-4.49-6.19-8.75-9.19-15.99-8.37c-3.48-7.16-6.97-14.32-10.45-21.47
		c5.23-6.24-0.15-12.43-2.58-17.92c-6.32-14.28-26.98-64.2-13.67-66.4c7.83-1.29,36.34-8.86,36.91-16.97
		c0.1-1.48-5.08-15.83,0.57-16.39c13.59-1.36,45.62,12.37,44.61,9.01c-10.22-33.76-15.33-28.89-24.08-55.89
		c2.46-2.9,81.05,2.23,81.81-2.11c5.37-5.72-70.73-49.75-65.36-55.47c5.12,4.02,8.41-2.65,14-6c11.1-6.65,19.59-12.87,31-19
		c4.61-2.48,11.97-1.73,15-6c4.27-6.02,8.12,2.95,9,3c2.01,0.12,4.46-0.19,6-1c12.07-6.32,21.43-0.19,34-3
		c3.27-0.73,4.45,6.45,7.99,6.9c0.7,0.37,1.36,0.83,2.1,1.09c23.98,8.57,44.88,22.21,63.35,39.47
		c16.68,15.58,29.62,34.02,39.51,54.69c16.55,34.59,21.59,70.67,15.67,108.49c-6.7,42.8-26.63,78.36-58.01,107.85
		c-6.75,6.34-13.41,12.81-19.59,19.7C553.94,557.85,548.64,564.96,544,571z"/>
	<path class="st3" d="M400.84,561.64c1.12,1.27,2.24,2.53,3.36,3.8C403.07,564.18,401.96,562.91,400.84,561.64z"/>
	<path class="st3" d="M406.63,666.23c-0.72,1.26-1.43,2.53-2.15,3.79C405.2,668.76,405.91,667.5,406.63,666.23z"/>
	<path class="st3" d="M412.98,579.92c0.33,0.44,0.65,0.87,0.98,1.31C413.63,580.79,413.3,580.36,412.98,579.92z"/>
	<path class="st3" d="M405.46,708.98c0.01,0.28,0.02,0.57,0.01,0.85c-0.28-0.02-0.57-0.05-0.85-0.07
		C404.9,709.5,405.18,709.24,405.46,708.98z"/>
	<path class="st3" d="M431.25,760.13c0.33,0.41,0.66,0.82,1,1.22C431.91,760.95,431.58,760.54,431.25,760.13z"/>
	<path class="st6" d="M461.77,808.85c0.3,0.32,0.6,0.63,0.9,0.95C462.37,809.48,462.07,809.17,461.77,808.85z"/>
	<path class="st3" d="M430.05,757.7c0.31,0.44,0.63,0.89,0.94,1.33C430.68,758.59,430.36,758.15,430.05,757.7z"/>
	<path class="st7" d="M544.15,570.25c4.64-6.04,8.94-12.4,14.01-18.06c6.18-6.88,12.84-13.36,19.59-19.7
		c31.38-29.5,51.31-65.05,58.01-107.85c5.92-37.82,0.88-73.9-15.67-108.49c-9.89-20.67-22.83-39.1-39.51-54.69
		c-18.47-17.25-39.38-30.9-63.35-39.47c-0.74-0.26-8.53-3.63-9.22-4c4.4-0.85,15.92,1.19,20.32,0.36c0.59-0.11,1.26-0.16,1.81-0.03
		C551,223,575.89,228.44,595,239c26.44,14.6,48.6,34.46,66,59c1.49,2.1-1.02,3.96,0.58,5.99c0.86,1.09,3,2.63,3.42,4.01
		c0.36,1.19,1.35,3.04,2,4c6.27,9.22,16.69,33.53,19,46c1.26,6.78-0.18,13.67,1.14,20.44c0.47,2.43-1.56,5.26-1.51,7.89
		c0.13,8.01,0.97,16.01,0.99,24.01c0.01,2.92-1.83,5.79-2.25,8.76c-1.18,8.35-1.52,16.87-3.29,25.08c-1,4.66-4.58,8.7-6.26,13.29
		C664.69,485.26,651.96,512.67,630,532c-23.1,20.33-43.07,40.87-53,69.75c-0.5,1.47-2.54,3.38-3.91,3.42
		c-9.49,0.3-18.98,0.16-29.31,0.16c0-11.18,0-21.85,0-32.53c-0.01-0.55-0.02-1.09-0.03-1.64
		C543.73,570.79,543.86,570.49,544.15,570.25z"/>
	<path class="st5" d="M488.16,542.21c-1.75-4.03-2.87-8.5-5.37-11.99c-5.8-8.12-12.45-15.64-18.4-23.67
		c-3.96-5.34-6.24-11.28-6.13-18.32c0.32-19.64,0.11-39.3,0.11-59.38c34.55,0,68.71,0,103.39,0c0.11,1.89,0.3,3.65,0.31,5.41
		c0.02,14.81-0.55,29.65,0.17,44.43c0.74,15.09-5.43,26.73-14.63,37.95c-7.12,8.69-13.45,18.21-18.82,28.07
		c-2.59,4.76-2.82,11.13-3.02,16.81c-0.44,12.97-0.31,25.97-0.14,38.95c0.05,3.7-1.18,5.11-4.84,5.06
		c-8.31-0.13-16.62-0.04-25.63-0.04c-0.13-2.13-0.34-4.05-0.35-5.97c-0.03-11.77,0.45-23.56-0.2-35.29
		c-0.37-6.59-2.57-13.07-3.95-19.61C489.82,543.82,488.99,543.01,488.16,542.21z"/>
	<path class="st8" d="M549.13,654.02c-40.57,0.07-81.13,0.11-121.7,0.26c-3.64,0.01-5.09-1.24-4.98-4.97
		c0.21-6.89,0.21-13.8,0-20.69c-0.12-3.76,1.43-5.05,4.99-5.04c40.56,0.13,81.13,0.19,121.69,0.27
		C549.13,633.91,549.13,643.96,549.13,654.02z"/>
	<path class="st9" d="M549.16,702.97c-17.24,0.11-34.47,0.27-51.71,0.32c-21.31,0.06-42.62-0.01-63.92,0.02
		c-12.7,0.02-10.97,0.23-11.01-11.3c-0.01-3.45-0.13-6.91,0.03-10.35c0.25-5.6,3.57-9.12,9.13-9.12
		c38.76-0.02,77.51,0.09,116.27,0.15c0.39,0.34,0.79,0.68,1.18,1.03C549.13,683.46,549.14,693.22,549.16,702.97z"/>
	<path class="st8" d="M524.75,752.21c-25.82,0-51.65,0-77.68,0c0-10.65,0-20.31,0-30.65c3.14,0,6.11-0.01,9.09,0
		c22.86,0.12,45.73,0.24,68.59,0.37C524.75,732.03,524.75,742.12,524.75,752.21z"/>
	<path class="st9" d="M524.75,752.21c0-10.09,0-20.19,0-30.28c15.96,0,31.92,0,48.73,0c0,8.74,0.26,17.56-0.25,26.34
		c-0.09,1.51-3.47,4.01-5.36,4.04C553.5,752.57,539.12,752.31,524.75,752.21z"/>
	<path class="st9" d="M549.13,654.02c0-10.06,0-20.11,0.01-30.17c14.19-0.08,28.38-0.11,42.56-0.29c3.65-0.05,5.08,1.35,4.98,5.03
		c-0.18,6.89-0.2,13.79,0.01,20.68c0.11,3.73-1.36,5.04-4.99,5C577.51,654.1,563.32,654.09,549.13,654.02z"/>
	<path class="st10" d="M549.16,702.97c-0.01-9.75-0.03-19.5-0.04-29.25c0.02-0.35,0.04-0.69,0.05-1.04
		c14.18-0.06,28.37-0.07,42.55-0.21c3.58-0.03,5.1,1.26,4.98,5.01c-0.22,6.88-0.18,13.78-0.02,20.67c0.09,3.64-1.39,5.19-4.99,5.15
		C577.51,703.15,563.33,703.07,549.16,702.97z"/>
	<path class="st11" d="M488.16,542.21c0.83,0.8,1.66,1.61,2.5,2.41C489.82,543.82,488.99,543.01,488.16,542.21z"/>
	<path class="st12" d="M436.18,586c0.71,0.84,1.42,1.68,2.13,2.52C437.6,587.68,436.89,586.84,436.18,586z"/>
	<path class="st13" d="M572.22,515.39c-0.38,0.33-0.76,0.66-1.14,0.99C571.46,516.04,571.84,515.72,572.22,515.39z"/>
	<path class="st14" d="M543.75,571.16c0.01,0.55,0.02,1.09,0.03,1.64C543.77,572.26,543.76,571.71,543.75,571.16z"/>
	<path class="st14" d="M439.78,431.1c-0.3-0.06-0.61-0.11-0.91-0.17c0.3-0.18,0.61-0.35,0.91-0.53c0,0,0.23,0.35,0.23,0.35
		L439.78,431.1z"/>
	<path class="st15" d="M549.16,672.68c-0.01,0.35-0.02,0.69-0.05,1.04c-0.39-0.34-0.79-0.68-1.18-1.03
		C548.34,672.68,548.75,672.68,549.16,672.68z"/>
	<path class="st16" d="M587.3,604.96c0,0-8.8-13.49,40.16-62.78c48.96-49.29,66.04-85.71,66.04-165.71s-78.59-133.71-78.59-133.71
		s-40.41-31.29-106.64-33.06s-108.62,34.77-108.62,34.77l62.6,52.95l-79.7,6.13l24.08,55.89l-49.47-10l4.3,33.74l-41.29-0.69
		c0,0-6.19,57,38.08,117.5c0,0,73.62,66.55,77.94,105.53"/>
</g>
<polygon class="st17" points="314.04,266.05 359.97,266.05 355.28,219.52 "/>
<polygon class="st17" points="243.79,342.91 270.04,347.59 278.48,320.41 299.6,320.41 265.35,266.05 "/>
<polygon class="st17" points="261.55,199.94 281.84,211.69 261.55,219.52 "/>
<polygon class="st17" points="271.7,389.78 271.7,402.91 281.84,396.34 "/>
<polygon class="st17" points="187,289.36 202.01,308.94 223.97,288.93 "/>
<circle class="st17" cx="323.28" cy="182.88" r="3.11"/>
<circle class="st17" cx="208.6" cy="231.68" r="3.11"/>
<circle class="st17" cx="192.89" cy="356.78" r="3.11"/>
</svg>
