<?xml version="1.0" encoding="utf-8"?>
<!-- Generator: Adobe Illustrator 27.2.0, SVG Export Plug-In . SVG Version: 6.00 Build 0)  -->
<svg version="1.1" id="Camada_1" xmlns="http://www.w3.org/2000/svg" xmlns:xlink="http://www.w3.org/1999/xlink" x="0px" y="0px"
	 viewBox="0 0 1000 1000" style="enable-background:new 0 0 1000 1000;" xml:space="preserve">
<style type="text/css">
	.st0{fill:#EFEFEF;}
	.st1{fill:#5C5C5E;}
	.st2{fill:#FFB844;}
	.st3{fill:#8C8C8C;}
	.st4{fill:#777777;}
	.st5{opacity:0.38;}
	.st6{fill:#686868;}
	.st7{fill:#FF7C33;}
	.st8{fill:#FFFFFF;}
	.st9{fill:#D6D6D6;}
	.st10{fill:#939393;}
	.st11{fill:none;stroke:#686868;stroke-width:5;stroke-linejoin:round;stroke-miterlimit:10;}
	.st12{fill:none;stroke:#686868;stroke-width:5;stroke-miterlimit:10;}
	.st13{fill:none;stroke:#686868;stroke-width:5;stroke-linecap:square;stroke-miterlimit:10;}
</style>
<circle class="st0" cx="501.28" cy="499.28" r="421.32"/>
<polygon class="st1" points="513,228 519,832 696,832 696,228 "/>
<polygon points="513,228 514,832 541,832 541,228 "/>
<g>
	<path d="M614.58,513.63c-1.34-1.34-2.69-2.67-4.16-4.14c-0.12-37.28-0.24-74.68-0.35-111.9c1.52-4.49,5.48-5.12,9.08-5.27
		c8.68-0.36,17.38-0.26,26.07-0.14c2.8,0.04,5.54,0.87,8.2,2.1c1.14,3.2,2.11,6.45,2.11,9.99c0.03,27.97,0.21,55.93,0.19,83.9
		c-0.01,6.98,1.03,14.03-1.28,21.5c-1,1.26-2.66,2.82-5.23,3.85C637.97,513.56,626.28,513.6,614.58,513.63z"/>
	<path d="M609.54,267.61c1.15-1.15,2.26-2.26,3.1-3.11c4.44-1.92,8.82-1.18,13.13-1.26c5.69-0.11,11.38,0.03,17.07-0.11
		c3.54-0.08,6.79,0.95,10.07,2.04c1.37,3.41,2.21,6.83,2.21,10.53c0.01,24.65,0.06,49.31,0.28,73.96c0.02,2.68-0.78,5.12-1.16,7.65
		c-0.28,1.9-1.73,3.79-4.02,4.42c-12,0.04-24,0.08-36.16,0.11c-1.31-1.38-2.71-2.86-4.24-4.48
		C609.73,327.6,609.63,297.57,609.54,267.61z"/>
	<path class="st2" d="M625.32,407.47c4.97-0.02,9.82-0.03,14.84-0.05c0.1,30.29,0.19,60.53,0.29,90.86
		c-4.97,0.02-9.82,0.03-14.84,0.05C625.51,468.04,625.42,437.8,625.32,407.47z"/>
	<path class="st2" d="M639.97,346.54c-4.98,0.02-9.83,0.03-14.85,0.05c-0.07-22.71-0.14-45.36-0.21-68.1
		c4.98-0.02,9.83-0.03,14.85-0.05C639.83,301.15,639.9,323.8,639.97,346.54z"/>
</g>
<g>
	<path d="M615.15,800.96c-1.34-1.34-2.69-2.67-4.16-4.14c-0.12-37.28-0.24-74.68-0.35-111.9c1.52-4.49,5.48-5.12,9.08-5.27
		c8.68-0.36,17.38-0.26,26.07-0.14c2.8,0.04,5.54,0.87,8.2,2.1c1.14,3.2,2.11,6.45,2.11,9.99c0.03,27.97,0.21,55.93,0.19,83.9
		c-0.01,6.98,1.03,14.03-1.28,21.5c-1,1.26-2.66,2.82-5.23,3.85C638.53,800.89,626.84,800.93,615.15,800.96z"/>
	<path d="M610.1,554.94c1.15-1.15,2.26-2.26,3.1-3.11c4.44-1.92,8.82-1.18,13.13-1.26c5.69-0.11,11.38,0.03,17.07-0.11
		c3.54-0.08,6.79,0.95,10.07,2.04c1.37,3.41,2.21,6.83,2.21,10.53c0.01,24.65,0.06,49.31,0.28,73.96c0.02,2.68-0.78,5.12-1.16,7.65
		c-0.28,1.9-1.73,3.79-4.02,4.42c-12,0.04-24,0.08-36.16,0.11c-1.31-1.38-2.71-2.86-4.24-4.48
		C610.29,614.93,610.19,584.9,610.1,554.94z"/>
	<path class="st2" d="M625.88,694.8c4.97-0.02,9.82-0.03,14.84-0.05c0.1,30.29,0.19,60.53,0.29,90.86
		c-4.97,0.02-9.82,0.03-14.84,0.05C626.07,755.37,625.98,725.13,625.88,694.8z"/>
	<path class="st2" d="M640.53,633.87c-4.98,0.02-9.83,0.03-14.85,0.05c-0.07-22.71-0.14-45.36-0.21-68.1
		c4.98-0.02,9.83-0.03,14.85-0.05C640.39,588.48,640.46,611.13,640.53,633.87z"/>
	<rect x="328.06" y="218.74" class="st3" width="186" height="619.76"/>
</g>
<circle class="st4" cx="383" cy="367.61" r="30.17"/>
<polygon class="st5" points="535.07,228.24 536,832 563,832 561.07,227.92 "/>
<path class="st6" d="M369.3,394.49c0,0,49.44-29.47,14.21-57.2c0,0,27.89,1.01,29.63,29.4C406.09,411.03,369.3,394.49,369.3,394.49z
	"/>
<circle class="st4" cx="381.63" cy="620.27" r="19.7"/>
<path class="st6" d="M394.81,605.6c0,0-27.77-3.66-29.57,25.58c0,0-9.82-15.36,4.79-26.84C383.92,594.98,394.81,605.6,394.81,605.6z
	"/>
<circle class="st4" cx="465.29" cy="268.9" r="16.92"/>
<path class="st6" d="M463.03,285.6c0,0,20.82-10.65,9.79-29.81c0,0,13.27,5.05,7.96,19.05C475.06,287.18,463.03,285.6,463.03,285.6z
	"/>
<path class="st7" d="M475.12,233.12c0,28.4-12.85,53.8-33.06,70.7c-15.99,13.37-45.82,37.41-59.06,58.91
	c-13-20.27-40.73-44.65-56.3-56.68c-21.79-16.85-35.82-43.25-35.82-72.92c0-50.88,41.24-92.12,92.12-92.12
	S475.12,182.24,475.12,233.12z"/>
<g>
	<path class="st8" d="M398.95,220.22c0.26-5.71,0.54-11.41,0.79-17.12c0.33-7.43,0.84-14.87,0.91-22.31
		c0.06-6.69-3.15-11.83-8.93-15.1c-5.85-3.32-11.91-3.23-17.65,0.29c-6.33,3.88-8.89,9.77-8.47,17.1
		c0.35,6.23,0.58,12.47,0.86,18.71c0.21,4.7,0.39,9.4,0.68,14.1c0.04,0.72,0.41,1.61,0.94,2.06c0.95,0.81,1.14,2.49,0.13,3.24
		c-1.05,0.78-1.02,1.89,0.06,2.55c1.13,0.68,1.17,2.34,0.25,3.23c-0.45,0.43-0.74,1.19-0.79,1.82c-0.09,1.09,0.08,2.2,0.13,3.31
		c0.41,9.4,0.77,18.81,1.25,28.2c0.41,7.97,6.09,13.78,13.49,13.97c8.07,0.21,14.17-5.6,14.58-14.05
		C397.82,246.89,398.37,233.55,398.95,220.22z M369.99,295.37c0.12,8.11,7.11,14.1,15.17,12.94c7.19-1.04,12.23-8.13,10.84-15.26
		c-1.42-7.31-8.61-12.07-15.71-10.4c-0.87,0.2-1.45,0.58-1.56,1.59c-0.1,0.91-1.87,1.74-2.77,1.55c-0.54-0.12-1.39-0.17-1.67,0.14
		c-0.34,0.39-0.35,1.18-0.29,1.78c0.08,0.8-0.86,2.6-1.66,2.61c-1.28,0-1.66,0.81-1.86,1.8
		C370.28,293.19,370.16,294.28,369.99,295.37z"/>
	<path class="st8" d="M367.14,215.88c-0.29-4.7-0.46-9.4-0.68-14.1c-0.28-6.24-0.51-12.47-0.86-18.71
		c-0.41-7.33,2.14-13.23,8.47-17.1c5.75-3.52,11.8-3.6,17.65-0.29c5.77,3.27,8.99,8.41,8.93,15.1c-0.07,7.44-0.58,14.87-0.91,22.31
		c-0.25,5.71-0.53,11.41-0.79,17.12c-0.59,13.33-1.13,26.67-1.78,40c-0.41,8.45-6.51,14.25-14.58,14.05
		c-7.4-0.19-13.09-6-13.49-13.97c-0.48-9.4-1.47-30.42-1.38-31.51L367.14,215.88z M388.54,251.04c0,0.72-0.2,1.52,0.06,2.14
		c0.25,0.6,0.91,1.3,1.49,1.4c0.43,0.07,1.12-0.68,1.47-1.21c0.26-0.39,0.21-1.02,0.24-1.54c0.13-3.02,0.24-6.04,0.37-9.06
		c0.2-4.99,0.39-9.97,0.62-14.95c0.46-10.5,0.94-20.99,1.42-31.48c0.22-4.84,0.39-9.68,0.74-14.51c0.47-6.43-4.87-12.48-11.19-12.55
		c-1.05-0.01-2.02,0.1-2.11,1.37c-0.1,1.32,0.79,1.64,1.95,1.74c4.18,0.37,7.23,3.04,7.97,7.08c0.24,1.35,0.15,2.77,0.09,4.16
		c-0.35,7.91-0.74,15.81-1.1,23.72c-0.22,4.94-0.39,9.88-0.62,14.81C389.48,231.78,389.01,241.41,388.54,251.04z M391.36,259.51
		c0.14-1.03-0.07-2.03-1.45-2.21c-1.01-0.14-1.64,0.73-1.67,2.19c-0.01,0.43-0.15,0.97,0.05,1.27c0.35,0.54,0.9,1.29,1.4,1.31
		c0.51,0.02,1.14-0.65,1.54-1.16C391.45,260.63,391.32,260.07,391.36,259.51z"/>
	<path class="st8" d="M370.69,291.12c2.92-7.75,9.6-8.48,9.6-8.48c7.1-1.67,14.29,3.09,15.71,10.4c1.39,7.13-3.66,14.23-10.84,15.26
		c-8.07,1.16-15.05-4.82-15.17-12.94c0.16-1.09,0.29-2.18,0.5-3.26 M389.32,295.41c0.12-0.05,0.23-0.11,0.35-0.16
		c-0.58-1.27-1.08-2.58-1.77-3.79c-0.5-0.87-1.41-1.24-2.34-0.58c-1,0.71-0.8,1.57-0.17,2.49c1.62,2.37,0.71,4.48-2.13,5.05
		c-1.07,0.22-1.83,0.75-1.61,1.95c0.21,1.1,1.07,1.38,2.09,1.27C386.96,301.31,389.31,298.67,389.32,295.41z"/>
	<path class="st9" d="M388.54,251.04c0.46-9.63,0.94-19.26,1.39-28.89c0.23-4.94,0.4-9.87,0.62-14.81
		c0.36-7.91,0.75-15.81,1.1-23.72c0.06-1.39,0.15-2.81-0.09-4.16c-0.73-4.05-3.79-6.72-7.97-7.08c-1.15-0.1-2.04-0.42-1.95-1.74
		c0.09-1.28,1.07-1.39,2.11-1.37c6.32,0.07,11.65,6.12,11.19,12.55c-0.35,4.83-0.52,9.67-0.74,14.51
		c-0.48,10.49-0.96,20.99-1.42,31.48c-0.22,4.98-0.41,9.97-0.62,14.95c-0.12,3.02-0.23,6.04-0.37,9.06
		c-0.02,0.53,0.03,1.15-0.24,1.54c-0.36,0.53-1.05,1.28-1.47,1.21c-0.57-0.1-1.24-0.8-1.49-1.4
		C388.34,252.57,388.54,251.76,388.54,251.04z"/>
	<path class="st8" d="M391.36,259.51c-0.04,0.57,0.09,1.12-0.13,1.4c-0.41,0.51-1.04,1.18-1.54,1.16c-0.5-0.02-1.05-0.77-1.4-1.31
		c-0.2-0.3-0.06-0.84-0.05-1.27c0.03-1.46,0.66-2.32,1.67-2.19C391.29,257.48,391.5,258.47,391.36,259.51z"/>
	<path class="st9" d="M389.32,295.41c-0.01,3.26-2.36,5.9-5.58,6.24c-1.01,0.11-1.88-0.18-2.09-1.27c-0.23-1.2,0.53-1.73,1.61-1.95
		c2.84-0.57,3.75-2.68,2.13-5.05c-0.63-0.93-0.83-1.78,0.17-2.49c0.93-0.66,1.84-0.29,2.34,0.58c0.7,1.2,1.19,2.52,1.77,3.79
		C389.55,295.31,389.44,295.36,389.32,295.41z"/>
</g>
<circle class="st4" cx="475.55" cy="663.68" r="8.93"/>
<path class="st6" d="M480.3,656.24c0,0-12.7,0.38-11.38,13.6c0,0-5.51-6.16,0.19-12.36C474.66,652.28,480.3,656.24,480.3,656.24z"/>
<circle class="st4" cx="413.14" cy="758.58" r="11.7"/>
<path class="st6" d="M415.84,769.9c0,0,11.17-12.33-2.5-23.09c0,0,10.82,0.39,11.49,11.41C424.71,768.17,415.84,769.9,415.84,769.9z
	"/>
<circle class="st4" cx="478.85" cy="539.74" r="15.98"/>
<path class="st6" d="M467.77,528.2c0,0-4.59,22.25,18.95,25.42c0,0-13,7.04-21.43-5.45C458.55,536.39,467.77,528.2,467.77,528.2z"/>
<circle class="st10" cx="397.13" cy="710.14" r="3.94"/>
<circle class="st10" cx="402.84" cy="701.85" r="2.15"/>
<circle class="st4" cx="468.91" cy="513.48" r="3.94"/>
<circle class="st4" cx="452.2" cy="413.43" r="8.93"/>
<path class="st6" d="M456.95,405.98c0,0-12.7,0.38-11.38,13.6c0,0-5.51-6.16,0.19-12.36C451.3,402.02,456.95,405.98,456.95,405.98z"
	/>
<g>
	<g>
		<ellipse class="st10" cx="494.84" cy="324.72" rx="2.72" ry="2.01"/>
		<ellipse class="st10" cx="477.73" cy="299.31" rx="2.72" ry="2.01"/>
		<ellipse class="st10" cx="494.84" cy="235.04" rx="2.72" ry="2.01"/>
		<ellipse class="st10" cx="477.73" cy="356.34" rx="2.72" ry="2.01"/>
		<ellipse class="st10" cx="429.5" cy="337.29" rx="5.43" ry="4.03"/>
		<ellipse class="st10" cx="421.72" cy="385.03" rx="5.43" ry="4.03"/>
		<ellipse class="st10" cx="495.7" cy="389.06" rx="5.43" ry="4.03"/>
		<ellipse class="st10" cx="465.2" cy="328.75" rx="5.43" ry="4.03"/>
		<ellipse class="st10" cx="364.29" cy="420.63" rx="7.62" ry="5.65"/>
		<ellipse class="st10" cx="452.65" cy="476.82" rx="5.43" ry="4.03"/>
		<ellipse class="st10" cx="501.5" cy="505.42" rx="2.72" ry="2.01"/>
		<ellipse class="st10" cx="339.9" cy="486.98" rx="2.72" ry="2.01"/>
		<ellipse class="st10" cx="417.58" cy="526.45" rx="2.72" ry="2.01"/>
		<ellipse class="st10" cx="402.33" cy="493.3" rx="2.72" ry="2.01"/>
		<ellipse class="st10" cx="460.8" cy="445.75" rx="2.72" ry="2.01"/>
		<ellipse class="st10" cx="479.12" cy="563.96" rx="2.72" ry="2.01"/>
		<ellipse class="st10" cx="417.58" cy="583.48" rx="2.72" ry="2.01"/>
		<ellipse class="st10" cx="494.84" cy="624.26" rx="5.43" ry="4.03"/>
		<ellipse class="st10" cx="417.58" cy="426.29" rx="5.43" ry="4.03"/>
		<ellipse class="st10" cx="342.62" cy="599.85" rx="5.43" ry="4.03"/>
		<ellipse class="st10" cx="383.11" cy="561.95" rx="5.43" ry="4.03"/>
		<ellipse class="st10" cx="356.14" cy="523.76" rx="5.43" ry="4.03"/>
		<ellipse class="st10" cx="493.34" cy="441.72" rx="5.43" ry="4.03"/>
		<ellipse class="st10" cx="350.24" cy="679.47" rx="7.62" ry="5.65"/>
		<ellipse class="st10" cx="481.9" cy="746.39" rx="5.43" ry="4.03"/>
		<ellipse class="st10" cx="444.49" cy="735.5" rx="2.72" ry="2.01"/>
		<ellipse class="st10" cx="383" cy="772.11" rx="2.72" ry="2.01"/>
		<ellipse class="st10" cx="360.58" cy="756.53" rx="2.72" ry="2.01"/>
		<ellipse class="st10" cx="345.33" cy="723.39" rx="2.72" ry="2.01"/>
		<ellipse class="st10" cx="403.79" cy="675.83" rx="2.72" ry="2.01"/>
		<ellipse class="st10" cx="422.12" cy="794.05" rx="2.72" ry="2.01"/>
		<ellipse class="st10" cx="360.58" cy="813.57" rx="2.72" ry="2.01"/>
		<ellipse class="st10" cx="500.27" cy="823.64" rx="5.43" ry="4.03"/>
		<ellipse class="st10" cx="376.28" cy="654.75" rx="5.43" ry="4.03"/>
		<ellipse class="st10" cx="348.05" cy="785.97" rx="5.43" ry="4.03"/>
		<ellipse class="st10" cx="436.34" cy="671.8" rx="5.43" ry="4.03"/>
	</g>
</g>
<path class="st11" d="M484.5,838.5c0,0-0.02-22.05-19.07-30.63c-15.97-7.2-20.83-23.41-23.66-29.7"/>
<path class="st12" d="M469.55,810.33c4.17-25.54,25.57-33.2,25.57-33.2"/>
<path class="st13" d="M380.42,513.48c0,0,4.91-38.79-28.7-51.85c-16.33-6.34-13.22-31.13-21.22-31.13"/>
<path class="st12" d="M394.89,419.72c0,0,4.91,38.79-28.7,51.85"/>
<path class="st12" d="M406.09,460.72c0,0-1.04-8.93-17.52-8.27"/>
<path class="st12" d="M514.49,576.61c0,0-30.03-2.31-26.19,18.23c3.22,17.22-58.33,1.99-61.88,7.9"/>
</svg>
