<?xml version="1.0" encoding="utf-8"?>
<!-- Generator: Adobe Illustrator 27.2.0, SVG Export Plug-In . SVG Version: 6.00 Build 0)  -->
<svg version="1.1" id="Camada_1" xmlns="http://www.w3.org/2000/svg" xmlns:xlink="http://www.w3.org/1999/xlink" x="0px" y="0px"
	 viewBox="0 0 1000 1000" style="enable-background:new 0 0 1000 1000;" xml:space="preserve">
<style type="text/css">
	.st0{fill:#EFEFEF;}
	.st1{fill:#5C5C5E;}
	.st2{fill:none;stroke:#303030;stroke-width:5;stroke-miterlimit:10;}
	.st3{fill:#FFB844;}
	.st4{fill:#303030;}
	.st5{opacity:0.38;}
	.st6{fill:#1E1E1E;}
	.st7{fill:#FF7C33;}
	.st8{fill:#FFFFFF;}
	.st9{fill:#D6D6D6;}
</style>
<circle class="st0" cx="501.28" cy="499.28" r="421.32"/>
<polygon class="st1" points="347,141 353,832 622,832 605,141 "/>
<path class="st2" d="M610.36,734.59c0,0-7.36-42.3-34.4-29.78c-22.66,10.5-44.68,0.61-54.09-2.22"/>
<path class="st2" d="M582.46,702.67c-23.64-28.32-11.93-58.55-11.93-58.55"/>
<path class="st2" d="M424.9,727.57c0,0,7.01-55.3-40.92-73.93c-23.28-9.04-33.93-44.02-33.73-43.52"/>
<path class="st2" d="M619.51,441.41c0,0-42.94-0.36-35.48,28.48c6.25,24.18-82.78,8.51-87.25,17.26"/>
<polygon points="332,141 334,832 364,832 364,141 "/>
<polygon points="605,141 606,832 637,832 637,141 "/>
<g>
	<path d="M463.03,469.02c-1.54-1.53-3.07-3.06-4.75-4.73c-0.13-42.6-0.27-85.35-0.4-127.88c1.74-5.13,6.27-5.85,10.38-6.02
		c9.92-0.42,19.86-0.3,29.79-0.16c3.2,0.05,6.34,0.99,9.37,2.4c1.31,3.66,2.41,7.37,2.41,11.41c0.04,31.96,0.24,63.92,0.21,95.88
		c-0.01,7.98,1.18,16.03-1.46,24.57c-1.15,1.44-3.04,3.23-5.98,4.4C489.76,468.94,476.4,468.98,463.03,469.02z"/>
	<path d="M459.16,185.96l0.64-0.64c0.74-0.74,1.61-1.29,2.57-1.6c4.54-1.44,9.02-0.77,13.44-0.86c6.5-0.12,13.01,0.03,19.51-0.12
		c2.92-0.07,5.66,0.53,8.37,1.33c2.06,0.61,3.68,2.23,4.31,4.29c0.86,2.82,1.36,5.7,1.36,8.74c0.01,28.18,0.07,56.35,0.32,84.53
		c0.03,3.06-0.89,5.85-1.32,8.74c-0.11,0.72-0.36,1.45-0.75,2.12c-1.1,1.88-3.21,2.94-5.39,2.95l-36.99,0.12
		c-1.78,0.01-3.47-0.72-4.7-2.01l-1.19-1.25c-1.11-1.18-1.75-2.76-1.76-4.41l-0.31-97.34C457.27,188.82,457.95,187.17,459.16,185.96
		z"/>
	<path class="st3" d="M475.3,347.7c5.68-0.02,11.23-0.04,16.96-0.05c0.11,34.61,0.22,69.17,0.33,103.84
		c-5.68,0.02-11.23,0.04-16.96,0.05C475.52,416.92,475.41,382.36,475.3,347.7z"/>
	<path class="st3" d="M492.05,278.07c-5.69,0.02-11.23,0.04-16.97,0.05c-0.08-25.95-0.16-51.84-0.25-77.83
		c5.69-0.02,11.23-0.04,16.97-0.05C491.88,226.19,491.97,252.08,492.05,278.07z"/>
</g>
<g>
	<path d="M463.68,797.39c-1.54-1.53-3.07-3.06-4.75-4.73c-0.13-42.6-0.27-85.35-0.4-127.88c1.74-5.13,6.27-5.85,10.38-6.02
		c9.92-0.42,19.86-0.3,29.79-0.16c3.2,0.05,6.34,0.99,9.37,2.4c1.31,3.66,2.41,7.37,2.41,11.41c0.04,31.96,0.24,63.92,0.21,95.88
		c-0.01,7.98,1.18,16.03-1.46,24.57c-1.15,1.44-3.04,3.23-5.98,4.4C490.4,797.31,477.04,797.35,463.68,797.39z"/>
	<path d="M457.91,516.23c1.31-1.31,2.58-2.58,3.55-3.55c5.07-2.19,10.08-1.35,15-1.44c6.5-0.12,13.01,0.03,19.51-0.12
		c4.05-0.1,7.76,1.09,11.51,2.33c1.56,3.89,2.53,7.8,2.53,12.03c0.01,28.18,0.07,56.35,0.32,84.53c0.03,3.06-0.89,5.85-1.32,8.74
		c-0.32,2.17-1.98,4.33-4.6,5.06c-13.71,0.04-27.43,0.09-41.32,0.13c-1.5-1.58-3.1-3.27-4.85-5.12
		C458.13,584.79,458.02,550.47,457.91,516.23z"/>
	<path class="st3" d="M475.95,676.07c5.68-0.02,11.23-0.04,16.96-0.05c0.11,34.61,0.22,69.17,0.33,103.84
		c-5.68,0.02-11.23,0.04-16.96,0.05C476.17,745.29,476.06,710.73,475.95,676.07z"/>
	<path class="st3" d="M492.69,606.44c-5.69,0.02-11.23,0.04-16.97,0.05c-0.08-25.95-0.16-51.84-0.25-77.83
		c5.69-0.02,11.23-0.04,16.97-0.05C492.53,554.56,492.61,580.45,492.69,606.44z"/>
</g>
<circle class="st4" cx="413.17" cy="467.64" r="34.48"/>
<polygon class="st5" points="575,141 577,832 607,832 605,141 "/>
<path class="st6" d="M397.52,498.36c0,0,56.51-33.68,16.23-65.37c0,0,31.87,1.16,33.86,33.6
	C439.57,517.27,397.52,498.36,397.52,498.36z"/>
<circle class="st4" cx="423.66" cy="546.85" r="15.78"/>
<path class="st6" d="M434.22,535.1c0,0-22.25-2.93-23.69,20.49c0,0-7.87-12.3,3.83-21.5C425.49,526.59,434.22,535.1,434.22,535.1z"
	/>
<circle class="st4" cx="545.15" cy="310.24" r="19.34"/>
<path class="st6" d="M543.57,328.33c0,0,23.79-12.17,11.19-34.06c0,0,15.17,5.77,9.09,21.77
	C557.31,330.14,543.57,328.33,543.57,328.33z"/>
<path class="st7" d="M518.45,313.95c0,32.46-14.69,61.48-37.78,80.79c-18.27,15.28-52.37,42.75-67.5,67.32
	c-14.86-23.17-46.55-51.02-64.34-64.78c-24.9-19.25-40.94-49.42-40.94-83.34c0-58.14,47.14-105.28,105.28-105.28
	C471.32,208.67,518.45,255.81,518.45,313.95z"/>
<g>
	<path class="st8" d="M431.41,299.2c0.3-6.52,0.61-13.04,0.9-19.57c0.38-8.5,0.96-16.99,1.04-25.49c0.07-7.64-3.6-13.52-10.2-17.26
		c-6.68-3.79-13.61-3.7-20.17,0.33c-7.23,4.43-10.15,11.16-9.68,19.55c0.4,7.12,0.66,14.25,0.98,21.38
		c0.24,5.37,0.45,10.75,0.77,16.11c0.05,0.82,0.47,1.84,1.07,2.36c1.09,0.93,1.31,2.84,0.15,3.71c-1.2,0.9-1.17,2.16,0.07,2.91
		c1.29,0.78,1.34,2.67,0.28,3.69c-0.51,0.49-0.85,1.36-0.91,2.08c-0.1,1.25,0.09,2.52,0.15,3.78c0.47,10.74,0.88,21.49,1.43,32.23
		c0.47,9.11,6.96,15.75,15.42,15.97c9.22,0.24,16.19-6.4,16.66-16.05C430.11,329.69,430.74,314.44,431.41,299.2z M398.31,385.09
		c0.14,9.27,8.12,16.12,17.34,14.79c8.21-1.19,13.97-9.3,12.39-17.44c-1.62-8.35-9.84-13.79-17.95-11.89
		c-0.99,0.23-1.66,0.66-1.78,1.82c-0.11,1.03-2.14,1.99-3.17,1.77c-0.62-0.13-1.59-0.19-1.9,0.16c-0.39,0.44-0.4,1.35-0.33,2.03
		c0.1,0.92-0.99,2.98-1.9,2.98c-1.47,0-1.89,0.92-2.12,2.05C398.64,382.59,398.5,383.85,398.31,385.09z"/>
	<path class="st8" d="M395.05,294.25c-0.33-5.37-0.53-10.74-0.77-16.11c-0.32-7.13-0.58-14.26-0.98-21.38
		c-0.47-8.38,2.45-15.12,9.68-19.55c6.57-4.02,13.49-4.12,20.17-0.33c6.6,3.74,10.27,9.62,10.2,17.26
		c-0.08,8.5-0.66,16.99-1.04,25.49c-0.29,6.52-0.6,13.05-0.9,19.57c-0.67,15.24-1.29,30.48-2.03,45.72
		c-0.47,9.66-7.44,16.29-16.66,16.05c-8.46-0.22-14.95-6.85-15.42-15.97c-0.55-10.74-1.68-34.76-1.58-36.01L395.05,294.25z
		 M419.51,334.43c0,0.82-0.23,1.74,0.06,2.44c0.28,0.68,1.04,1.49,1.7,1.6c0.49,0.08,1.28-0.78,1.68-1.38
		c0.3-0.45,0.24-1.16,0.27-1.77c0.15-3.45,0.28-6.9,0.42-10.35c0.23-5.7,0.45-11.39,0.7-17.09c0.53-11.99,1.07-23.99,1.62-35.98
		c0.25-5.53,0.44-11.07,0.84-16.59c0.53-7.34-5.56-14.26-12.78-14.34c-1.2-0.01-2.31,0.11-2.41,1.57c-0.11,1.51,0.91,1.87,2.23,1.99
		c4.77,0.42,8.27,3.47,9.11,8.09c0.28,1.54,0.18,3.17,0.11,4.75c-0.4,9.04-0.85,18.07-1.25,27.11c-0.26,5.64-0.44,11.29-0.71,16.93
		C420.58,312.42,420.04,323.42,419.51,334.43z M422.73,344.1c0.16-1.18-0.08-2.32-1.66-2.53c-1.16-0.16-1.87,0.83-1.91,2.5
		c-0.01,0.49-0.17,1.1,0.05,1.45c0.4,0.62,1.03,1.47,1.6,1.5c0.58,0.03,1.3-0.75,1.76-1.32
		C422.83,345.39,422.68,344.75,422.73,344.1z"/>
	<path class="st8" d="M399.11,380.23c3.34-8.86,10.97-9.69,10.97-9.69c8.11-1.9,16.33,3.54,17.95,11.89
		c1.58,8.15-4.18,16.26-12.39,17.44c-9.22,1.33-17.2-5.51-17.34-14.79c0.19-1.24,0.33-2.5,0.57-3.73 M420.4,385.14
		c0.13-0.06,0.27-0.12,0.4-0.18c-0.66-1.45-1.23-2.95-2.03-4.33c-0.57-0.99-1.61-1.41-2.67-0.66c-1.14,0.81-0.91,1.79-0.19,2.85
		c1.85,2.71,0.82,5.12-2.43,5.78c-1.23,0.25-2.1,0.85-1.83,2.22c0.24,1.25,1.23,1.58,2.38,1.46
		C417.7,391.88,420.39,388.86,420.4,385.14z"/>
	<path class="st9" d="M419.51,334.43c0.53-11.01,1.07-22.01,1.59-33.02c0.26-5.64,0.45-11.29,0.71-16.93
		c0.41-9.04,0.86-18.07,1.25-27.11c0.07-1.58,0.17-3.21-0.11-4.75c-0.84-4.62-4.33-7.67-9.11-8.09c-1.32-0.12-2.34-0.48-2.23-1.99
		c0.11-1.46,1.22-1.58,2.41-1.57c7.22,0.08,13.32,6.99,12.78,14.34c-0.4,5.52-0.59,11.06-0.84,16.59
		c-0.55,11.99-1.09,23.99-1.62,35.98c-0.25,5.7-0.47,11.39-0.7,17.09c-0.14,3.45-0.27,6.9-0.42,10.35c-0.03,0.6,0.03,1.32-0.27,1.77
		c-0.41,0.61-1.2,1.46-1.68,1.38c-0.66-0.11-1.41-0.91-1.7-1.6C419.28,336.17,419.51,335.25,419.51,334.43z"/>
	<path class="st8" d="M422.73,344.1c-0.04,0.65,0.1,1.28-0.15,1.6c-0.47,0.58-1.18,1.35-1.76,1.32c-0.57-0.03-1.2-0.88-1.6-1.5
		c-0.23-0.35-0.06-0.96-0.05-1.45c0.04-1.67,0.75-2.65,1.91-2.5C422.65,341.79,422.89,342.92,422.73,344.1z"/>
	<path class="st9" d="M420.4,385.14c-0.01,3.72-2.7,6.74-6.37,7.13c-1.16,0.12-2.15-0.2-2.38-1.46c-0.26-1.37,0.61-1.98,1.83-2.22
		c3.25-0.65,4.29-3.07,2.43-5.78c-0.72-1.06-0.95-2.04,0.19-2.85c1.06-0.75,2.1-0.33,2.67,0.66c0.8,1.37,1.36,2.88,2.03,4.33
		C420.66,385.02,420.53,385.08,420.4,385.14z"/>
</g>
<circle class="st4" cx="547.75" cy="791.56" r="10.21"/>
<path class="st6" d="M553.18,783.05c0,0-14.51,0.44-13,15.54c0,0-6.3-7.04,0.22-14.13C546.73,778.53,553.18,783.05,553.18,783.05z"
	/>
<circle class="st4" cx="387.62" cy="761.25" r="13.37"/>
<path class="st6" d="M390.71,774.19c0,0,12.76-14.09-2.86-26.38c0,0,12.36,0.45,13.14,13.04
	C400.85,772.21,390.71,774.19,390.71,774.19z"/>
<circle class="st4" cx="551.29" cy="571.87" r="18.26"/>
<path class="st6" d="M538.62,558.68c0,0-5.24,25.43,21.66,29.05c0,0-14.86,8.05-24.49-6.23
	C528.08,568.04,538.62,558.68,538.62,558.68z"/>
<circle class="st4" cx="387.99" cy="703.98" r="4.5"/>
<circle class="st4" cx="394.52" cy="694.51" r="2.46"/>
<circle class="st4" cx="539.92" cy="541.86" r="4.5"/>
<circle class="st4" cx="386.59" cy="164.22" r="12.34"/>
<path class="st6" d="M398.73,166.39c0,0-7.23-15.98-23.37-7.28c0,0,4.92-10.3,15.86-6.32C400.78,157.09,398.73,166.39,398.73,166.39
	z"/>
<circle class="st4" cx="558.59" cy="398.78" r="10.21"/>
<path class="st6" d="M564.02,390.27c0,0-14.51,0.44-13,15.54c0,0-6.3-7.04,0.22-14.13C557.57,385.75,564.02,390.27,564.02,390.27z"
	/>
<circle class="st4" cx="520.17" cy="183.65" r="4.55"/>
<path class="st6" d="M515.96,182.08c0,0,1.54,6.29,7.99,4.22c0,0-2.48,3.4-6.18,1.22C514.59,185.31,515.96,182.08,515.96,182.08z"/>
<path class="st2" d="M445.54,594.89c0,0,7.01,55.3-40.92,73.93"/>
<path class="st2" d="M445.5,700.35c0,0-1.48-12.73-24.98-11.79"/>
<path class="st2" d="M544.93,485.42c0,0-12.73-15.43,14.8-41.45"/>
</svg>
