<?xml version="1.0" encoding="utf-8"?>
<!-- Generator: Adobe Illustrator 27.2.0, SVG Export Plug-In . SVG Version: 6.00 Build 0)  -->
<svg version="1.1" id="Camada_1" xmlns="http://www.w3.org/2000/svg" xmlns:xlink="http://www.w3.org/1999/xlink" x="0px" y="0px"
	 viewBox="0 0 1000 1000" style="enable-background:new 0 0 1000 1000;" xml:space="preserve">
<style type="text/css">
	.st0{fill:#EFEFEF;}
	.st1{fill:#5A4B5A;}
	.st2{fill:#9B8686;}
	.st3{fill:#685968;}
	.st4{fill:#010101;}
	.st5{fill:#030203;}
	.st6{fill:#9F8A8A;}
	.st7{fill:#83727A;}
	.st8{fill:#43A3F8;}
	.st9{fill:#EAE1DC;}
	.st10{fill:#DED0C7;}
	.st11{fill:#1684F9;}
	.st12{fill:#1684F8;}
	.st13{fill:#9D8888;}
	.st14{fill:#040404;}
	.st15{fill:#030303;}
	.st16{fill:#1FC899;}
	.st17{fill:#78F5C8;}
</style>
<circle class="st0" cx="501.28" cy="499.28" r="421.32"/>
<g>
	<g>
		<path d="M680.04,670.93c-14.19,9.11-30.02,12.88-46.5,15.4c-22.68,3.47-43.87-1.29-65.21-8.23c-5.67-1.85-12.89,0.89-19.36,1.73
			c-3.78,0.49-7.49,1.48-11.27,2.07c-7.66,1.2-11.92-2.74-14.11-9.63c0.87-7.06,4.37-11,11.94-11.41
			c5.15-0.28,10.39-1.22,15.32-2.73c9.94-3.06,19.55-4.17,29.08,1.3c1.9,1.09,4.34,1.25,6.52,1.85c14.9,5.54,30.14,6.4,45.84,4.19
			c16.96-2.39,32.45-8.31,46.98-17.19c5.85-3.58,11.13-3.97,16.94,1.31c12.07,10.98,26.24,18.71,43.01,16.63
			c9.77-1.21,19.27-5.38,28.62-8.95c5.96-2.28,11.02-3.05,15.91,1.88c9.87,9.96,21.25,12.87,34.51,7.33
			c12.81-5.36,20.92-19.54,18.42-33.59c-3.15-17.71-14.75-24.99-31.43-26.17c-7.1-0.5-10.08-4.63-12.09-10.31
			c-1.37-3.87-1.83-8.12-3.54-11.81c-7.76-16.71-20.76-27.32-38.56-32.07c-20.15-1.41-19.93-2.58-23.74-19.28
			c-3.71-16.27-20.9-34.3-40.43-31.56c-0.44,0.06-1.06-1.19-1.6-1.84c0.15-0.39,0.29-0.78,0.42-1.17c-0.25,0.28-0.5,0.57-0.76,0.85
			c-3.53-3.48-7.06-6.96-10.59-10.44c-0.35-0.33-0.7-0.67-1.06-1c0.37-2.67,1.43-5.46,0.99-8c-3.08-17.73-8.07-34.9-16.42-50.94
			c-7.59-14.59-17.73-27.23-29.56-38.59c-0.02-1.63-0.05-3.27-0.07-4.9c-1.37,0.24-2.74,0.48-4.11,0.73
			c-6.49-4.41-6.64-10.31-3.96-16.88c5.66-4.13,11.56-4.02,16.55,0.66c6.63,6.22,13.08,12.64,19.61,18.98
			c3.78,5.1,7.56,10.2,12.02,16.21c5.77-13.04,11.76-24.83,16.2-37.18c3.25-9.04,6.1-18.78,6.23-28.25
			c0.2-14.46-7.07-26.12-19.26-34.35c-5.9-0.59-10.57-8.08-17.51-3.11c-0.34,0.25-1.3-0.23-1.91-0.51
			c-6.75-3.09-13.75-5.77-20.16-9.45c-5.25-3.02-9.3-9.17-14.76-10.59c-21.45-5.57-39.44,0.45-51.19,19.84
			c-4.9,8.08-8.31,17.07-12.49,25.84c1.64,0.92,3.11,2.08,4.79,2.64c11.5,3.85,23.08,7.46,34.55,11.4
			c6.32,2.17,7.49,5.56,5.13,11.93c-0.34,0.92,0.69,2.35,1.08,3.55c-1.48,1.8-2.96,3.6-4.43,5.4c-0.41,0-0.81,0.02-1.22,0.05
			c-2.42-0.51-4.91-0.84-7.26-1.58c-11.44-3.61-22.7-7.95-34.31-10.89c-17.48-4.42-35.36-6.14-53.26-2.83
			c-13.49,2.5-26.81,5.86-40.47,8.89c1.6,3.59,2.52,5.67,3.45,7.74c-0.07,0.94-0.14,1.87-0.21,2.81c2.39,2.57,4.78,5.15,7.21,7.76
			c-1.52,6.27,1.11,11.5,5.06,16.35c0.34,0.32,0.69,0.64,1.03,0.95c-3.15,6.98-0.37,13.8,0.06,20.8c1.78,28.69-1.68,56.6-16.4,82.96
			c3.41,1.92,6.54,3.69,9.67,5.46c0.79,0.8,1.58,1.6,2.37,2.4c4.88,4.96,9.84,9.84,14.61,14.9c9.55,10.15,16.66,21.95,20.5,35.23
			c1.06,3.67-0.94,10.1-3.83,12.6c-4.56,3.95-10,1.22-13.77-3.28c-1.3-1.55-2.15-3.48-3.14-5.27c-3.28-5.95-6.52-11.92-9.78-17.88
			c-1.86-2.34-3.72-4.68-5.58-7.01c-10.1-12.63-23.01-21.54-37.97-27.14c-7.98-2.98-16.63-4.16-24.9-6.41
			c-3.14-0.86-6.87-4.28-8.96-3.37c-5.48,2.38-12.35-3.09-16.79,3.36c-0.3,0.44-1.84-0.14-2.69,0.13
			c-10.22,3.19-20.41,6.46-30.61,9.7c-2.13,1.32-4.26,2.64-6.39,3.96c-10.11,5.04-19.21,11.26-25.16,21.23
			c-1.16,1.95-2.44,3.84-3.71,5.73c-3.83,5.69-8.44,11.01-11.34,17.14c-3.93,8.29-7.16,10.88-16.96,10.22
			c-0.69-1.29-1.39-2.58-2.08-3.87c-2.72-3.66-3.81-7.21-1.22-11.7c6.12-10.62,11.84-21.48,17.79-32.36
			c-2.85-3.83-6.23-8.16-9.38-12.67c-2.89-4.14-5.82-4.37-8.68-0.26c-4.81,6.89-10.12,13.57-13.87,21.02
			c-3.14,6.24-5.87,13.43-6.01,20.26c-0.16,7.78-5.9,17.59-14.17,18.5c-13.27,1.46-24.51,6.78-33.57,16.64
			c-5.05-0.09-4.84,3.74-5.28,7.09c-1.43,3.79-3.2,7.5-4.23,11.4c-2.72,10.3-6.64,13.07-17.32,13.92c-4.22,0.34-9.01,2.3-12.2,5.06
			c-10.08,8.74-11.13,24.06-3.08,34.16c8.65,10.85,22.93,13.1,34.14,3.92c8.09-6.63,14.85-6.64,23.5-1.56
			c18,10.58,38.88,4.41,53.23-7.87c6.85-5.86,10.81-6.07,18.59-1.78c9.77,5.39,19.3,11.8,31.24,11.35c0.97,0.36,1.95,0.72,2.92,1.08
			c11.37,4.01,22.68,3.16,34.2,0.3c17.1-4.25,32.42-11.58,45.13-23.96c0.94-1.28,1.89-2.57,2.83-3.85
			c9.61,0.23,17.31,4.53,25.68,9.21c13.03,7.28,27.53,12.33,41.93,16.57c8.29,2.45,15.24,4.18,15.91,14.19
			c-3.65,5.35-7.66,10.03-15.18,8.27c-0.23-0.56-0.45-1.11-0.68-1.67c-0.24,0.55-0.48,1.09-0.72,1.64
			c-17.84-4.81-35.59-9.88-51.6-19.53c-0.83-0.37-1.67-0.75-2.5-1.12c-3.53-4.47-7.24-1.64-10.5,0.12
			c-3.48,1.89-6.53,4.58-9.77,6.92c-0.43,0.21-0.74,0.53-0.92,0.98c-19.63,10.52-40.44,16.72-62.85,15.6
			c-17.22-0.86-33.76-5.02-48.96-13.49c-3.41-1.9-6.15-1.61-8.95,1.04c-7.31,6.92-16.55,9.31-26.08,11.21
			c-14,2.8-27.17,1.11-40.35-4.61c-3.03-1.32-8.44,2.25-12.53,4.08c-14.94,6.68-33.68,4.79-46.36-6.3
			c-8.29-7.25-14.27-15.65-16.32-26.6c-0.06-1.37-0.12-2.73-0.18-4.1c-0.35-1.45-0.71-2.9-1.06-4.36c0-0.93,0-1.86,0-2.79
			c0-1.39,0-2.79,0-4.18c0-0.93,0-1.86,0-2.79c0.92-1.16,2.55-2.26,2.65-3.49c1.12-13.6,9.38-23.35,20.88-26.98
			c12.58-3.97,19.18-12.35,24.15-22.5c7.27-14.87,19.98-22.35,34.25-27.73c7.6-2.87,12.42-5.98,14.64-14.75
			c5.34-21.05,17.65-38.19,33.31-51.78c-3.31-14.35-7.5-27.94-9.32-41.84c-1.42-10.85-0.58-22.15,0.56-33.11
			c0.99-9.52,3.06-19.09,6.05-28.17c2.62-7.95,7.15-15.28,10.92-22.85c0.7-1.41,2.44-2.53,2.63-3.92
			c1.41-10.16,10.05-15.22,15.87-22.03c7.39-8.66,15.55-17.17,26.66-21.17c10.83-3.9,21.9-7.3,33.08-10.01
			c5.67-1.37,8.93,3.22,11.13,8.03c-1.43,4.65-8.78,11.96-13.36,12.75c-16.57,2.85-30.65,11.09-41.89,22.79
			c-13.92,14.49-22.45,32.6-28.2,51.89c-1.53,5.13-3.84,10.24-4.2,15.47c-0.47,6.83,0.7,13.76,1.06,20.65
			c0.68,13.22,3.61,25.94,8.43,38.24c0,0.55,0,1.1,0,1.65c4.06,7.68,7.72,15.61,12.29,22.97c6.69,10.77,7.99,10.76,17.61,2.96
			c0.29-0.23,0.29-0.82,0.28-0.8c-3.69-5.81-7.2-11.35-10.72-16.89c-0.65-1.39-1.3-2.78-1.96-4.17c-1.62-3.03-3.92-5.89-4.77-9.12
			c-5.24-19.98-8.77-40.15-3.66-60.75c2.27-9.13,4.06-18.53,7.69-27.13c5.74-13.59,14.68-25.02,27.82-32.59
			c23.79-7.82,41.39-1.56,53.43,15.54c5.67,8.05,9.93,17.38,13.29,26.69c2.37,6.55,0.72,14.64,3.4,20.97
			c4.06,9.6,2.82,19.27,2.02,28.58c-1.12,12.96-4.81,25.71-7.4,38.53c9.44,1.94,20.46,4.2,31.48,6.47c0.81,0.63,1.62,1.25,2.43,1.88
			c2.61-3.49,5.21-6.98,7.82-10.48c0.77-0.93,1.55-1.86,2.32-2.79c-0.05-0.95-0.1-1.9-0.15-2.86c1.83-8.71,7-16.22,6.15-26.08
			c-1.18-13.73,5.31-27.71-0.77-41.5c-0.19-0.42-0.67-1.03-0.53-1.24c4.52-7.07-0.8-11.38-4.25-15.43c1.03-3.54,1.88-6.47,2.73-9.41
			c-0.71,0.2-1.42,0.41-2.13,0.61c-2.46-2.9-5.4-5.51-7.29-8.75c-8.07-13.83-17.61-26.64-31.67-34.46
			c-9.17-5.11-11.72-12.33-12.45-21.45c7.34-4.85,14.12-2.47,20.48,1.92c5.52,3.8,10.72,8.07,16.06,12.12
			c0.93,0.93,1.87,1.86,2.8,2.79c0.73,0.54,1.69,0.93,2.14,1.65c6.28,9.96,14.39,9.05,24.29,5.61c13.9-4.83,27.97-9.51,43.23-8.83
			c5.57,0.25,11.21-2.6,16.91-3.21c2.74-0.29,5.69,1.33,8.7,2.13c6.78-13.44,13.53-26.93,20.44-40.34c0.89-1.73,2.66-3.01,4.03-4.51
			c1.37,0.23,2.74,0.47,4.11,0.7c0.03-1.63,0.05-3.26,0.08-4.89c4.68-3.13,9.36-6.26,14.04-9.39c2.31-0.93,4.63-1.86,6.94-2.79
			c3.69-1.49,7.38-2.97,11.06-4.46c0.96-0.46,1.93-0.91,2.89-1.37c4.39,0,8.77,0,13.94,0c0-2.49-0.15-4.73,0.03-6.95
			c0.35-4.19-0.55-9.47,1.64-12.34c5.72-7.5,13.67-13.41,23.32-13.79c5.34-0.21,10.95,3.13,16.22,5.4
			c6.68,2.87,13.11,6.31,19.67,9.45c13.29,6.35,28.54,9.67,36.72,23.86c0.6,1.04,1.45,2.27,1.35,3.33
			c-1.09,11.58-3.51,22.51-16.45,28.49c9.86,7.58,13.93,17.92,18.25,28.12c0.44,1.86,0.87,3.72,1.31,5.58
			c0.39,4.94,1.06,9.88,1.02,14.82c-0.02,2.04-1.56,4.07-2.41,6.1c0.46,1.39,0.93,2.79,1.39,4.18c-1.48,5.55-2.97,11.1-4.45,16.65
			c-4.81,0.39-4.97,0.62-2.81,4.29c0.09,0.47,0.19,0.93,0.28,1.4c-2.18,2.43-4.54,4.72-6.42,7.36c-0.54,0.75,0.33,2.5,0.55,3.79
			c0.1,0.46,0.19,0.93,0.29,1.39c-2.18,2.43-4.54,4.72-6.42,7.36c-0.54,0.75,0.33,2.5,0.55,3.8c0.1,0.46,0.19,0.93,0.29,1.39
			c-2.18,2.43-4.54,4.72-6.42,7.36c-0.54,0.75,0.33,2.5,0.55,3.8c0.1,0.46,0.2,0.93,0.29,1.39c-1.21,2.4-2.42,4.8-3.63,7.2
			c-0.26,0.1-0.43,0.28-0.53,0.54c-4.48,1.64-3.55,4.54-1.77,7.63c1.42,2.41,2.84,4.81,4.27,7.22c0.38,0.83,0.76,1.66,1.14,2.5
			c2.21,8.9,4.35,17.82,6.65,26.7c0.98,3.78,2.28,7.48,3.43,11.21c0.36,0.37,0.72,0.75,1.09,1.12c3.83,1.06,7.65,2.12,11.48,3.18
			c0.33,0.33,0.66,0.67,0.99,1c5.95,4.68,12.79,8.59,17.64,14.21c7.07,8.19,12.71,17.62,18.96,26.52c0.39,0.84,0.78,1.69,1.17,2.53
			c0.11,1.59,0.22,3.18,0.34,4.82c7.89,2.21,15.76,4.41,23.63,6.62c1.39,0.84,2.79,1.67,4.18,2.51
			c15.36,10.92,27.89,24.01,34.8,42.11c1.16,3.05,6.26,5.76,9.95,6.45c8,1.49,14.06,5.61,19.67,10.96c2.15,2.06,4.35,4.07,6.53,6.11
			c1.82,2.8,3.65,5.6,5.47,8.4c1.13,4.02,2.14,8.09,3.55,12.01c0.19,0.53,2.43,0.31,3.72,0.44c0,0.93,0,1.86,0,2.79
			c-0.93,0.55-2.64,1.08-2.66,1.65c-0.11,5.03,0.08,10.06,0.19,15.09c-2.46,20.93-22.9,40.35-43.28,43.57
			c-14.18,2.24-25.91-1.32-37.67-8.35c-2.49-1.48-7.24-0.47-10.43,0.73c-21.2,8.01-42,8.8-62.44-2.26c-1.76-0.75-3.51-1.5-5.27-2.25
			c-4.26-2.65-8.52-5.3-12.77-7.94C682.29,665.26,681.06,667.77,680.04,670.93z M384.61,458.75c0.34-0.51,0.68-1.02,1.02-1.53
			c5.19-20.87,6.91-41.79-0.01-62.59c-4.13-12.41-9.75-23.99-22.22-30.44c-5.56-0.07-11.12-0.26-16.68-0.13
			c-1.7,0.04-4.17,0.44-4.94,1.58c-3.89,5.75-7.84,11.56-10.82,17.8c-4.2,8.76-7.57,17.91-10.57,25.15
			c0.43,8.06,1.06,14.76,1.09,21.46c0.07,16.75,4.38,32.27,14.23,45.75c3,4.1,5.56,10.84,12.93,9.23c3.64-0.8,7.07-2.51,10.6-3.81
			c11.2,0,19.21-4.71,23.06-15.58C383.11,463.37,383.84,461.05,384.61,458.75z M687.86,270.66c-19.39-8.73-37.55-18.33-57.67-24.77
			c-0.88,13.48,2.43,18.63,13.14,23.25c6.94,2.99,13.69,6.43,20.59,9.52C672.21,282.38,680.35,279.96,687.86,270.66z"/>
		<path class="st1" d="M144.39,640.09c0.35,1.45,0.71,2.9,1.06,4.36c-0.37,0.05-0.72,0-1.06-0.17
			C144.39,642.88,144.39,641.49,144.39,640.09z"/>
		<path class="st2" d="M144.39,644.27c0.33,0.17,0.69,0.23,1.06,0.17c0.06,1.37,0.12,2.73,0.18,4.1c-0.41-0.07-0.82-0.1-1.24-0.09
			C144.39,647.06,144.39,645.67,144.39,644.27z"/>
		<path class="st1" d="M144.39,633.12c0,1.39,0,2.79,0,4.18C144.39,635.91,144.39,634.51,144.39,633.12z"/>
		<path class="st3" d="M396.71,310.77c0.73,9.12,3.27,16.34,12.45,21.45c14.06,7.82,23.59,20.63,31.67,34.46
			c1.89,3.23,4.83,5.85,7.29,8.75c0.71-0.2,1.42-0.41,2.13-0.61c-0.85,2.94-1.7,5.87-2.73,9.41c3.45,4.05,8.78,8.36,4.25,15.43
			c-0.14,0.21,0.35,0.82,0.53,1.24c6.07,13.78-0.42,27.77,0.77,41.5c0.85,9.87-4.33,17.37-6.15,26.08
			c-0.78,0.95-1.56,1.89-2.34,2.84c0.06,0.94,0.11,1.87,0.17,2.81c-2.61,3.49-5.21,6.98-7.81,10.47c-0.81-0.63-1.62-1.25-2.43-1.87
			c-11.02-2.26-22.04-4.53-31.48-6.47c2.59-12.83,6.28-25.57,7.4-38.53c0.81-9.31,2.04-18.97-2.02-28.58
			c-2.68-6.33-1.04-14.42-3.4-20.97c-3.36-9.31-7.61-18.64-13.29-26.69c-12.04-17.1-29.64-23.36-53.43-15.54
			c0.22-0.88,0.16-2.02,0.71-2.61c10.29-11.07,20.87-21.73,35.56-27.11c3-1.1,5.56-3.37,8.33-5.1
			C387.49,311.01,392.1,310.89,396.71,310.77z"/>
		<path class="st1" d="M382.88,311.13c-2.76,1.73-5.33,4-8.33,5.1c-14.69,5.38-25.27,16.05-35.56,27.11
			c-0.54,0.58-0.48,1.72-0.71,2.61c-13.13,7.56-22.07,19-27.82,32.59c-3.63,8.59-5.43,18-7.69,27.13
			c-5.11,20.59-1.58,40.77,3.66,60.75c0.85,3.23,3.14,6.09,4.76,9.12c0.65,1.39,1.31,2.78,1.96,4.17
			c3.52,5.54,7.03,11.09,10.72,16.89c0.01-0.02,0,0.56-0.28,0.8c-9.62,7.8-10.92,7.8-17.61-2.96c-4.57-7.36-8.23-15.29-12.29-22.97
			c0-0.55,0-1.1,0-1.65c-4.82-12.3-7.75-25.02-8.43-38.24c-0.35-6.89-1.53-13.82-1.06-20.65c0.36-5.23,2.67-10.33,4.2-15.47
			c5.75-19.28,14.28-37.4,28.2-51.89c11.24-11.7,25.32-19.94,41.89-22.79c4.57-0.79,11.92-8.1,13.36-12.75
			C375.52,309.06,379.2,310.09,382.88,311.13z"/>
		<path class="st4" d="M515.71,204.9c-5.27,0.11-10-4.19-10.08-9.15c-0.1-7,3.72-11.85,9.25-11.73c5.33,0.11,11.44,5.36,11.72,10.08
			C526.93,199.65,521.78,204.77,515.71,204.9z"/>
		<path class="st5" d="M233.29,408.55c6.81,0.09,10.21,3.43,10.14,9.95c-0.07,6.41-3.59,9.62-10.53,9.59
			c-5.57-0.02-10.3-4.68-10.4-10.25C222.38,411.84,226.32,408.46,233.29,408.55z"/>
		<path class="st4" d="M236.48,468.77c-0.02,6.12-4.78,11-10.65,10.92c-5.13-0.07-10.48-5.66-10.29-10.77
			c0.18-5.04,4.77-9.98,9.43-10.15C231.12,458.55,236.5,463.22,236.48,468.77z"/>
		<path class="st5" d="M754.15,415.53c0,1.86,0,3.72,0,5.58c-5.41,8.76-11.45,9.6-19.62,2.73c-2.88-5.56-1.7-10.72,3.31-13.8
			c5.17-3.18,10.7-2.48,14.89,2.7C753.2,413.67,753.68,414.6,754.15,415.53z"/>
		<path class="st4" d="M486.11,280.12c0.06-5.2,4.73-9.71,9.96-9.61c5.78,0.11,11.12,4.93,10.98,9.91
			c-0.13,4.86-6.49,11.02-11.32,10.98C490.55,291.35,486.05,286.07,486.11,280.12z"/>
		<path class="st4" d="M194.52,428.08c4.62-0.3,9.52,4.32,9.86,9.3c0.29,4.29-5.61,9.98-10.58,10.2
			c-5.46,0.24-10.03-4.27-10.35-10.23C183.09,430.9,185.77,428.65,194.52,428.08z"/>
		<path d="M559.98,275.92c-0.03,1.63-0.05,3.26-0.08,4.89c-1.37-0.23-2.74-0.47-4.11-0.7C557.19,278.71,558.58,277.32,559.98,275.92
			z"/>
		<path d="M580.96,263.74c-2.31,0.93-4.63,1.86-6.94,2.79C576.33,265.6,578.64,264.67,580.96,263.74z"/>
		<path d="M776.22,539.67c-1.39-0.84-2.79-1.67-4.18-2.51C773.43,537.99,774.82,538.83,776.22,539.67z"/>
		<path class="st5" d="M594.91,257.91c-0.96,0.46-1.93,0.91-2.89,1.37C592.98,258.82,593.95,258.36,594.91,257.91z"/>
		<path d="M436.06,327.6c-0.93-0.93-1.87-1.86-2.8-2.79C434.19,325.74,435.13,326.67,436.06,327.6z"/>
		<path d="M686.66,439.25c-0.38-0.83-0.76-1.66-1.14-2.5C685.9,437.58,686.28,438.41,686.66,439.25z"/>
		<path d="M748.07,525.72c-0.39-0.84-0.78-1.69-1.17-2.53C747.29,524.03,747.68,524.88,748.07,525.72z"/>
		<path d="M697.83,478.28c-0.36-0.37-0.72-0.75-1.09-1.12C697.11,477.53,697.47,477.91,697.83,478.28z"/>
		<path d="M710.3,482.46c-0.33-0.33-0.66-0.67-0.99-1C709.64,481.79,709.97,482.12,710.3,482.46z"/>
		<path class="st6" d="M212.7,582.79c9.06-9.85,20.3-15.17,33.57-16.64c8.27-0.91,14-10.72,14.17-18.5
			c0.14-6.83,2.87-14.01,6.01-20.26c3.75-7.45,9.07-14.12,13.87-21.02c2.86-4.1,5.79-3.87,8.68,0.26c3.15,4.5,6.53,8.84,9.38,12.67
			c-5.94,10.87-11.67,21.73-17.79,32.36c-2.59,4.49-1.5,8.05,1.22,11.7c0.69,1.29,1.39,2.58,2.08,3.87
			c9.8,0.66,13.03-1.93,16.96-10.22c2.9-6.13,7.51-11.45,11.34-17.14c1.27-1.89,2.55-3.78,3.71-5.73
			c5.95-9.98,15.05-16.19,25.16-21.23c2.13-1.32,4.26-2.64,6.39-3.96c10.2-3.24,20.4-6.51,30.61-9.7c0.85-0.27,2.39,0.32,2.69-0.13
			c4.44-6.45,11.31-0.98,16.79-3.36c2.09-0.91,5.81,2.52,8.96,3.37c8.27,2.26,16.92,3.43,24.9,6.41
			c14.96,5.6,27.87,14.51,37.97,27.14c1.86,2.34,3.72,4.68,5.58,7.01c3.26,5.96,6.5,11.93,9.78,17.88c0.99,1.79,1.84,3.72,3.14,5.27
			c3.77,4.49,9.21,7.22,13.77,3.28c2.89-2.51,4.89-8.93,3.83-12.6c-3.84-13.28-10.95-25.08-20.5-35.23
			c-4.77-5.06-9.73-9.94-14.61-14.9c-0.79-0.8-1.58-1.6-2.37-2.4c-3.13-1.77-6.26-3.53-9.67-5.46
			c14.72-26.36,18.18-54.27,16.4-82.96c-0.43-7-3.22-13.82-0.06-20.8c-0.34-0.32-0.69-0.64-1.03-0.95
			c-3.94-4.85-6.57-10.09-5.06-16.35c-2.43-2.61-4.82-5.19-7.21-7.76c0.66-0.44,1.32-0.87,1.98-1.31c-0.59-0.5-1.17-1-1.76-1.5
			c-0.92-2.07-1.85-4.15-3.45-7.74c13.65-3.03,26.98-6.39,40.47-8.89c17.9-3.31,35.78-1.59,53.26,2.83
			c11.61,2.93,22.87,7.27,34.31,10.89c2.35,0.74,4.83,1.06,7.26,1.58c0.26,0.36,0.52,0.72,0.78,1.08c0.15-0.38,0.29-0.75,0.44-1.13
			c1.48-1.8,2.96-3.6,4.43-5.41c7.04,4.13,14.08,8.26,21.12,12.4c-2.67,6.56-2.53,12.47,3.96,16.88c1.39,1.39,2.79,2.78,4.18,4.17
			c11.83,11.35,21.97,24,29.56,38.59c8.35,16.05,13.35,33.21,16.42,50.94c0.44,2.53-0.62,5.33-0.99,8c0.35,0.33,0.7,0.67,1.06,1
			c3.53,3.48,7.06,6.96,10.59,10.44l0.33,0.32c0.54,0.64,1.16,1.9,1.6,1.84c19.53-2.75,36.72,15.29,40.43,31.56
			c3.81,16.7,3.58,17.87,23.74,19.28c-0.25,0.88-0.36,1.83-0.76,2.62c-9.25,18.34-22.48,33.56-37.64,47.15
			c-3.27,2.93-7.55,4.72-11.37,7.04c-8.08-21.01-21.79-36.75-42.53-46.19c-3.05-1.39-6.62-3.95-7.77-6.84
			c-7.85-19.76-14.98-39.81-22.61-59.66c-4.28-11.14-8.51-22.76-19.85-28.76c-15.74-8.32-18.18-23.23-20.5-38.44
			c1.42-1.18,2.85-2.37,4.27-3.55c4.19-13.11,2-23.82-6.05-29.64c-8.26-5.97-22.95-5.78-31.52-0.02c-2.75,1.85-6.2,2.72-9.39,3.85
			c-6.84,2.44-13.98,4.22-20.53,7.27c-8.6,4-13.59,11.81-13.18,20.9c0.6,13.18,8.81,21.29,22.11,24.87c1.42,0.38,3.7,0.69,4.01,1.57
			c3.62,10.39,10.71,19.97,7.1,32.08c-2.48,8.32-4.98,16.87-1.84,25.59c7.06,19.56,14.15,39.12,21.6,58.53
			c1.6,4.17,1.15,6.47-1.63,10.13c-6.19,8.15-11.57,16.99-16.63,25.91c-3.43,6.04,0.26,10.65,5.34,13.52
			c5.29,2.99,9.63,0.27,12.96-4.05c1.26-1.63,2.13-3.59,3.02-5.47c10.45-22.12,33.84-36.8,61.94-33.88
			c23.95,2.49,39.74,14.92,50.62,35.33c1.49,2.79,3.66,5.22,5.51,7.82c-0.72,0.88-1.25,2.16-2.18,2.57
			c-20.36,9.09-40.59,18.51-61.23,26.93c-11.6,4.73-23.89,7.76-35.87,11.55c-2.19-0.59-4.62-0.75-6.52-1.85
			c-9.53-5.47-19.13-4.36-29.08-1.3c-4.93,1.52-10.17,2.46-15.32,2.73c-7.57,0.41-11.07,4.35-11.94,11.41
			c-7.9-0.09-15.8-0.18-23.69-0.27c-0.67-10.01-7.62-11.75-15.91-14.19c-14.4-4.24-28.9-9.29-41.93-16.57
			c-8.37-4.68-16.06-8.98-25.68-9.21c-0.94,1.28-1.89,2.57-2.83,3.85c-12.72,12.38-28.03,19.71-45.13,23.96
			c-11.53,2.86-22.83,3.71-34.2-0.3c-0.97-0.36-1.95-0.72-2.92-1.08c-11.94,0.45-21.47-5.96-31.24-11.35
			c-7.77-4.29-11.74-4.08-18.59,1.78c-14.35,12.28-35.23,18.45-53.23,7.87c-8.65-5.08-15.41-5.06-23.5,1.56
			c-11.21,9.18-25.5,6.93-34.14-3.92c-8.04-10.09-7-25.41,3.08-34.16c3.19-2.77,7.98-4.73,12.2-5.06
			c10.68-0.85,14.6-3.61,17.32-13.92c1.03-3.9,2.8-7.6,4.23-11.4C209.18,587.52,210.94,585.16,212.7,582.79z"/>
		<path d="M680.04,670.93c1.02-3.17,2.25-5.67,5.52-1.76C683.72,669.76,681.88,670.35,680.04,670.93z"/>
		<path d="M698.34,677.12c1.76,0.75,3.51,1.5,5.27,2.25C701.85,678.62,700.1,677.87,698.34,677.12z"/>
		<path class="st4" d="M429.22,659.59c0.83,0.37,1.67,0.75,2.5,1.12C430.89,660.34,430.05,659.97,429.22,659.59z"/>
		<path class="st4" d="M483.32,680.25c0.24-0.55,0.48-1.09,0.72-1.64c0.23,0.56,0.45,1.11,0.68,1.67
			C484.25,680.27,483.79,680.26,483.32,680.25z"/>
		<path class="st4" d="M408.03,667.61c0.18-0.45,0.49-0.77,0.92-0.98C408.65,666.96,408.34,667.29,408.03,667.61z"/>
		<path class="st7" d="M701.27,609.35c3.82-2.32,8.1-4.11,11.37-7.04c15.16-13.59,28.39-28.81,37.64-47.15
			c0.4-0.8,0.51-1.75,0.76-2.62c17.79,4.75,30.8,15.36,38.56,32.07c1.71,3.69,2.18,7.93,3.54,11.81c2.01,5.68,4.99,9.81,12.09,10.31
			c16.68,1.18,28.28,8.46,31.43,26.17c2.5,14.05-5.6,28.23-18.42,33.59c-13.25,5.54-24.64,2.63-34.51-7.33
			c-4.89-4.93-9.95-4.16-15.91-1.88c-9.34,3.57-18.85,7.74-28.62,8.95c-16.77,2.08-30.93-5.65-43.01-16.63
			c-5.81-5.28-11.09-4.89-16.94-1.31c-14.52,8.88-30.01,14.8-46.98,17.19c-15.7,2.21-30.94,1.35-45.84-4.19
			c11.98-3.79,24.27-6.82,35.87-11.55c20.64-8.41,40.87-17.84,61.23-26.93c0.92-0.41,1.46-1.7,2.18-2.57
			C694.51,623.67,700.26,619.64,701.27,609.35z"/>
		<path class="st8" d="M620.17,369.52c-7.04-4.13-14.08-8.26-21.12-12.4c-0.39-1.19-1.42-2.62-1.08-3.55
			c2.36-6.37,1.19-9.76-5.13-11.93c-11.47-3.94-23.05-7.55-34.55-11.4c-1.67-0.56-3.15-1.72-4.79-2.64
			c4.18-8.77,7.59-17.75,12.49-25.84c11.75-19.39,29.74-25.4,51.19-19.84c5.45,1.41,9.51,7.57,14.76,10.59
			c6.41,3.68,13.41,6.36,20.16,9.45c0.61,0.28,1.57,0.76,1.91,0.51c6.94-4.96,11.61,2.53,17.51,3.11c0.3,1.34,0.37,2.79,0.93,4
			c7.83,16.95,6.09,33.56-1.48,50.06c-3.36,7.33-6.39,14.82-9.82,22.12c-1.24,2.64-3.2,4.93-4.83,7.38
			c-6.53-6.34-12.97-12.76-19.61-18.98C631.73,365.5,625.83,365.39,620.17,369.52z"/>
		<path class="st9" d="M363.4,364.2c12.47,6.44,18.09,18.02,22.22,30.44c6.92,20.79,5.2,41.72,0.01,62.59
			c-0.34,0.51-0.68,1.02-1.02,1.53c-0.77,2.3-1.5,4.62-2.31,6.91c-3.85,10.86-11.86,15.58-23.06,15.58
			c-1.83-3.2-3.92-6.28-5.45-9.61c-10.97-23.92-13.45-48.91-6.14-74.04C351.04,385.91,358.04,375.29,363.4,364.2z"/>
		<path class="st10" d="M363.4,364.2c-5.36,11.1-12.35,21.72-15.75,33.38c-7.32,25.13-4.83,50.11,6.14,74.04
			c1.53,3.34,3.62,6.42,5.45,9.61c-3.53,1.3-6.96,3.02-10.6,3.81c-7.37,1.61-9.93-5.13-12.93-9.23c-9.85-13.48-14.17-29-14.23-45.75
			c-0.03-6.7-0.66-13.41-1.09-21.46c3-7.25,6.37-16.4,10.57-25.15c2.99-6.24,6.93-12.05,10.82-17.8c0.77-1.14,3.24-1.54,4.94-1.58
			C352.28,363.94,357.84,364.13,363.4,364.2z"/>
		<path class="st11" d="M656.32,389.15c1.63-2.45,3.59-4.75,4.83-7.38c3.43-7.3,6.46-14.79,9.82-22.12
			c7.56-16.5,9.31-33.11,1.48-50.06c-0.56-1.22-0.63-2.66-0.93-4c12.18,8.23,19.45,19.89,19.26,34.35
			c-0.13,9.47-2.98,19.21-6.23,28.25c-4.44,12.35-10.43,24.14-16.2,37.18C663.89,399.35,660.11,394.25,656.32,389.15z"/>
		<path class="st12" d="M687.86,270.66c-7.51,9.29-15.65,11.71-23.94,8c-6.9-3.09-13.64-6.54-20.59-9.52
			c-10.72-4.61-14.02-9.77-13.14-23.25C650.31,252.33,668.47,261.93,687.86,270.66z"/>
		<path d="M628.31,390.57c-1.39-1.39-2.79-2.78-4.18-4.17c1.37-0.24,2.74-0.48,4.11-0.73C628.26,387.3,628.29,388.94,628.31,390.57z
			"/>
		<path class="st13" d="M212.7,582.79c-1.76,2.36-3.52,4.72-5.28,7.09C207.86,586.54,207.65,582.7,212.7,582.79z"/>
		<path class="st14" d="M347.44,508.95c-2.13,1.32-4.26,2.64-6.39,3.96C343.18,511.59,345.31,510.27,347.44,508.95z"/>
		<path class="st14" d="M474.94,539.71c-1.86-2.34-3.72-4.68-5.58-7.01C471.22,535.04,473.08,537.38,474.94,539.71z"/>
		<path d="M444.58,471.31c0.78-0.95,1.56-1.89,2.34-2.84c0.05,0.95,0.1,1.9,0.15,2.86C446.24,471.32,445.41,471.32,444.58,471.31z"
			/>
		<path class="st14" d="M313.16,479.7c-0.66-1.39-1.31-2.78-1.96-4.17C311.85,476.92,312.51,478.31,313.16,479.7z"/>
		<path class="st15" d="M283.88,567.23c-0.69-1.29-1.39-2.58-2.08-3.87C282.5,564.66,283.19,565.95,283.88,567.23z"/>
		<path class="st4" d="M413.55,635.89c0.94-1.28,1.89-2.57,2.83-3.85C415.44,633.33,414.49,634.61,413.55,635.89z"/>
		<path class="st14" d="M444.58,471.31c0.83,0.01,1.66,0.01,2.49,0.02c-0.77,0.93-1.55,1.86-2.32,2.79
			C444.69,473.18,444.63,472.25,444.58,471.31z"/>
		<path class="st14" d="M434.5,482.72c0.81,0.62,1.62,1.25,2.43,1.87C436.12,483.97,435.31,483.34,434.5,482.72z"/>
		<path class="st15" d="M467.97,501.01c0.79,0.8,1.58,1.6,2.37,2.4C469.55,502.61,468.76,501.81,467.97,501.01z"/>
		<path class="st2" d="M461.55,363.92c0.59,0.5,1.17,1,1.76,1.5c-0.66,0.44-1.32,0.87-1.98,1.31
			C461.4,365.79,461.48,364.85,461.55,363.92z"/>
		<path class="st4" d="M331.29,658.48c0.97,0.36,1.95,0.72,2.92,1.08C333.24,659.2,332.27,658.84,331.29,658.48z"/>
		<path class="st5" d="M473.61,390.84c0.34,0.32,0.69,0.64,1.03,0.95C474.3,391.47,473.95,391.16,473.61,390.84z"/>
		<path d="M674.36,489.1c-0.35-0.33-0.7-0.67-1.06-1C673.66,488.43,674.01,488.76,674.36,489.1z"/>
		<path d="M684.95,499.54c0.25-0.28,0.5-0.57,0.76-0.85c-0.14,0.39-0.28,0.78-0.42,1.17C685.28,499.86,684.95,499.54,684.95,499.54z
			"/>
		<path class="st5" d="M293.68,469.81c0,0.55,0,1.1,0,1.65C293.69,470.91,293.68,470.36,293.68,469.81z"/>
		<path class="st4" d="M384.61,458.75c0.34-0.51,0.68-1.02,1.02-1.53C385.29,457.73,384.95,458.24,384.61,458.75z"/>
		<path class="st4" d="M594.61,362.53c-0.15,0.38-0.29,0.75-0.44,1.13c-0.26-0.36-0.52-0.72-0.78-1.08
			C593.8,362.55,594.21,362.53,594.61,362.53z"/>
		<path class="st4" d="M701.27,609.35c-1.01,10.29-6.76,14.32-15.54,10.88c-1.85-2.6-4.02-5.03-5.51-7.82
			c-10.88-20.41-26.67-32.85-50.62-35.33c-28.1-2.92-51.49,11.76-61.94,33.88c-0.89,1.88-1.76,3.84-3.02,5.47
			c-3.33,4.32-7.68,7.04-12.96,4.05c-5.08-2.87-8.77-7.48-5.34-13.52c5.06-8.92,10.44-17.76,16.63-25.91
			c2.78-3.66,3.23-5.96,1.63-10.13c-7.46-19.41-14.55-38.97-21.6-58.53c-3.14-8.71-0.64-17.26,1.84-25.59
			c3.61-12.11-3.48-21.69-7.1-32.08c-0.31-0.89-2.59-1.19-4.01-1.57c-13.3-3.58-21.51-11.69-22.11-24.87
			c-0.41-9.08,4.58-16.9,13.18-20.9c6.55-3.05,13.69-4.83,20.53-7.27c3.19-1.14,6.64-2,9.39-3.85c8.57-5.76,23.25-5.96,31.52,0.02
			c8.05,5.82,10.24,16.53,6.05,29.64c-1.42,1.18-2.85,2.37-4.27,3.55c2.32,15.21,4.76,30.12,20.5,38.44
			c11.35,6,15.57,17.62,19.85,28.76c7.63,19.85,14.76,39.9,22.61,59.66c1.15,2.89,4.72,5.45,7.77,6.84
			C679.48,572.6,693.2,588.34,701.27,609.35z M627.54,553.68c-5.73-15.2-11.33-31.19-17.81-46.82c-3.01-7.25-7.27-14.11-11.83-20.52
			c-2.26-3.18-6.57-4.84-9.81-7.38c-10.46-8.19-15.18-19.96-19.11-32c-1.5-4.59-3.36-5.43-7.27-3.15c-1.48,0.87-3.05,1.59-4.86,2.52
			c1.08,2.28,2.27,4.03,2.75,5.95c2.49,10.15,7.59,20.65,6.52,30.45c-1.56,14.26-4.19,27.73,2.73,41.3
			c3.63,7.12,6.14,14.81,9.01,22.3c2.18,5.69,4.14,11.46,5.81,16.12C598.9,559.4,612.91,556.6,627.54,553.68z M574.85,415.25
			c-0.34-0.68-0.69-1.36-1.03-2.04c-0.87-0.16-1.86-0.68-2.59-0.43c-12.55,4.31-25.08,8.67-37.53,13.23
			c-0.8,0.29-1.65,2.66-1.25,3.41c0.47,0.89,2.5,1.75,3.47,1.44c9.73-3.15,19.44-6.36,29.01-9.96
			C568.44,419.59,571.55,417.17,574.85,415.25z"/>
		<path class="st2" d="M588.01,429.46c1.42-1.18,2.85-2.37,4.27-3.55C590.86,427.09,589.44,428.28,588.01,429.46z"/>
		<path class="st16" d="M627.54,553.68c-14.63,2.92-28.63,5.72-43.86,8.77c-1.67-4.66-3.63-10.43-5.81-16.12
			c-2.87-7.49-5.39-15.18-9.01-22.3c-6.92-13.58-4.29-27.04-2.73-41.3c1.07-9.8-4.03-20.3-6.52-30.45
			c-0.47-1.93-1.67-3.67-2.75-5.95c1.81-0.93,3.37-1.65,4.86-2.52c3.91-2.28,5.77-1.43,7.27,3.15c3.93,12.04,8.65,23.8,19.11,32
			c3.24,2.54,7.55,4.2,9.81,7.38c4.56,6.42,8.83,13.27,11.83,20.52C616.21,522.49,621.81,538.48,627.54,553.68z"/>
		<path class="st17" d="M574.85,415.25c-3.3,1.92-6.41,4.33-9.93,5.66c-9.57,3.6-19.28,6.81-29.01,9.96c-0.97,0.31-3-0.55-3.47-1.44
			c-0.4-0.75,0.45-3.12,1.25-3.41c12.46-4.56,24.99-8.92,37.53-13.23c0.73-0.25,1.72,0.27,2.59,0.43
			C574.16,413.89,574.5,414.57,574.85,415.25z"/>
	</g>
</g>
</svg>
