<?xml version="1.0" encoding="utf-8"?>
<!-- Generator: Adobe Illustrator 27.2.0, SVG Export Plug-In . SVG Version: 6.00 Build 0)  -->
<svg version="1.1" id="Camada_1" xmlns="http://www.w3.org/2000/svg" xmlns:xlink="http://www.w3.org/1999/xlink" x="0px" y="0px"
	 viewBox="0 0 1000 1000" style="enable-background:new 0 0 1000 1000;" xml:space="preserve">
<style type="text/css">
	.st0{fill:#EFEFEF;}
	.st1{fill:#FFFFFF;}
	.st2{fill:#171717;}
	.st3{fill:#181818;}
	.st4{fill:#FDB716;}
	.st5{fill:#86DDFA;}
	.st6{fill:#E5E5E5;}
	.st7{fill:#4C4C4C;}
	.st8{fill:#F89B1C;}
	.st9{fill:#62C1EA;}
	.st10{fill:#383838;}
	.st11{fill:#EF1616;}
	.st12{fill:#C9C9C9;}
	.st13{fill:#D08217;}
	.st14{fill:#7AD4F5;}
	.st15{fill:#995B08;stroke:#000000;stroke-width:12;stroke-miterlimit:10;}
	.st16{fill:none;stroke:#000000;stroke-width:5;stroke-miterlimit:10;}
	.st17{fill:none;stroke:#000000;stroke-width:4;stroke-miterlimit:10;}
	.st18{fill:none;stroke:#000000;stroke-width:3;stroke-miterlimit:10;}
</style>
<circle class="st0" cx="501.28" cy="499.28" r="421.32"/>
<g>
	<path d="M762.57,705.3"/>
	<path d="M742.4,715.23c-18.91-12.16-32.69-1.92-36.71-2.98c-1.11-0.29-6.67-3.84-15.71-0.9c-7.9,2.57-5.44-14.1-10.29-10.78
		c-1.18,0.81-7.89-6.22-9.18-6.83c-8.95-4.17,0.11,8.76-6.94,1.97c-0.19-0.18-5.63-1.54-7.61,1.93c-0.44,0.78-0.96-1.53-0.79-2.39
		c1.1-5.71-1.33-8.23-6.13-8.69c-1.1-0.1-12.49-4.34-12.16-5.39c5-15.81-2.75-17.7-4.47-30.17c-0.71-5.14-2.7-6.63-7.72-6.91
		c-88.05-4.88-176.09-9.89-264.12-15.08c-5.54-0.33-7.41,1.37-8.62,6.69c-2.55,11.24-8.13,21.16-15.18,30.23
		c-0.52,0.67-1.24,1.15-2.05,1.39c-4.8,1.42-8.92,3.58-9.89,9.1c-0.13,0.74-0.45,1.44-0.95,2c-6.47,7.18-14.54,11.69-23.73,14.38
		c-0.87,0.25-1.8,0.19-2.64-0.15c-5.37-2.17-9.8-1.66-12.51,3.73c-0.6,1.19-1.71,2.04-3.03,2.26c-4.49,0.73-8.97,1.64-13.54,0.31
		c-3.6-1.05-7.25-1.26-10.95-0.62c-4.35,0.95-8.23-0.88-12.25-1.95c-1.12-0.3-2.07-1.03-2.6-2.06c-3.91-7.5-4.62-8.03-9.63-4.62
		c-1.18,0.8-2.69,0.94-3.98,0.34c-8.71-4.05-15.78-10.36-22.65-16.95c-0.58-0.55-0.99-1.26-1.15-2.05
		c-0.92-4.43-0.57-9.83-6.73-10.27c-1.18-0.08-2.28-0.63-3.01-1.56c-7.85-9.92-12.04-21.48-13.75-33.9
		c-0.71-5.12-2.62-6.79-7.69-6.95c-10.77-0.34-21.53-1.24-32.29-1.97c-1.26-0.08-2.41-0.74-3.11-1.79c-2.43-3.65-5.08-6.47-9.35-3.5
		c-1.36,0.95-3.17,0.99-4.56,0.08c-5.81-3.78-11.13-8-13.28-15.04c-0.28-0.92-0.2-1.9,0.17-2.79c1.98-4.69,1.93-8.88-2.29-12.05
		c-1.12-0.84-1.78-2.15-1.7-3.55c0.46-7.88,0.92-15.77,1.37-23.65c0.08-1.3,0.77-2.49,1.87-3.19c3.84-2.44,7.19-5.43,10.03-8.98
		c0.76-0.95,1.92-1.5,3.14-1.51c10.57-0.05,10.58-0.71,11.3-12.53c0.68-11.29,1.44-22.57,2.17-33.85c0.07-1.06,0.56-2.04,1.34-2.76
		c3.47-3.21,5.33-6.61,1.26-10.7c-0.77-0.78-1.17-1.87-1.11-2.96c0.08-1.72,0.46-3.45-0.04-5.14c-0.09-0.32-0.16-0.64-0.16-0.97
		c0.09-19.97,5.36-39.07,9.98-58.27c1.32-5.5,3-10.92,4.55-16.37c0.16-0.57,0.16-1.17,0.07-1.76c-0.32-2.01,0.73-3.59,1.94-5.12
		c0.12-0.16,0.24-0.32,0.34-0.49c2.34-3.98,4.1-8.19,5.15-12.69c0.12-0.51,0.13-1.04,0.04-1.55c-0.34-2.03,0.49-3.61,1.97-4.94
		c0.38-0.34,0.69-0.76,0.92-1.23c8.24-17.07,17.26-33.74,26.51-50.27c0.89-1.6,0.61-3.6-0.69-4.88c-0.91-0.9-1.85-1.77-2.33-2.98
		c-0.24-0.59-0.65-1.1-1.14-1.51c-2.33-1.98-4.1-4.43-5.74-6.99c-0.36-0.56-0.87-0.98-1.44-1.33c-1.47-0.9-1.2-2.84-1.89-4.2
		c-0.11-0.21-0.21-0.42-0.28-0.64c-3.81-12.53-3.95-24.67,3.68-36.12c8.36-12.55,20.99-16.75,34.9-15.99
		c96.34,5.21,192.65,10.81,288.96,16.41c5.66,0.33,11.26,1.62,16.88,2.57c0.77,0.13,1.5,0.43,2.09,0.94
		c1.36,1.19,2.91,1.77,4.77,1.37c0.49-0.11,1-0.12,1.49-0.04c6.34,1.06,12.44,2.79,17.85,6.38c0.79,0.52,1.37,1.3,1.66,2.2
		c1.43,4.38,3.94,6.62,8.39,4.94c1.31-0.49,2.78-0.29,3.9,0.55c2.18,1.64,4.35,3.27,6.53,4.91c0.42,0.31,0.78,0.7,1.04,1.15
		c0.86,1.5,1.36,3.36,3.35,3.73c0.58,0.11,1.11,0.39,1.58,0.75c10.95,8.6,17.16,20.6,23.3,32.66c0.34,0.66,0.49,1.4,0.43,2.14
		c-0.58,7.35,2.77,11.98,10.33,13.71l-0.04-0.04c-1.14,8.05,2.34,12.91,10.19,14.75l-0.04-0.04c-1.14,8.05,2.34,12.91,10.19,14.75
		l-0.04-0.04c-1.14,8.05,2.34,12.91,10.19,14.75l-0.04-0.04c-1.14,8.05,2.34,12.91,10.18,14.75l-0.03-0.04
		c-1.13,8.05,2.34,12.91,10.19,14.75l-0.04-0.04c-1.14,8.05,2.34,12.91,10.19,14.75l-0.04-0.04c0.24,0.75,0.36,1.53,0.34,2.31
		c-0.07,3.3-1.39,7.1,2.39,9.19c3.24,1.79,5.71-0.26,8.2-1.93c0.63-0.43,1.38-0.67,2.14-0.68c10.71-0.18,21.03,3.48,31.71,3.57
		c0.91,0.01,1.78,0.36,2.49,0.92c1.34,1.08,2.87,1.57,4.7,1.12c0.31-0.08,0.63-0.13,0.95-0.12c16.99,0.4,33.72,2.95,50.45,5.68
		c5.36,0.87,10.85,0.94,16.3,1.27c0.85,0.05,1.67,0.37,2.32,0.92c1.38,1.16,2.95,1.7,4.83,1.23c0.31-0.08,0.63-0.14,0.95-0.14
		c20.18-0.42,37.46,6.83,52.61,19.73c0.51,0.44,0.91,0.99,1.15,1.62c1.48,3.83,1.56,8.96,5.91,10.11c3.32,4.03,6.49,7.88,9.81,11.91
		c0.17,3.43,1.19,6.46,4.12,8.61c0.74,0.54,1.32,1.28,1.57,2.15c4.8,16.41,4.19,33.2,3.2,50.02c-0.4,6.74-0.74,13.49-1.17,20.23
		c-0.32,5.09-1.91,10.35,5.97,11.74c4.8,0.85,3.64,5.86,4.15,9.42c1.35,9.37,1.26,18.64-1.88,27.67c-0.22,0.63-0.6,1.2-1.1,1.64
		c-3.22,2.92-5.66,6.05-3.44,10.47c0.71,1.4,0.56,3.09-0.4,4.33c-0.13,0.17-0.26,0.34-0.4,0.51c-0.55,0.7-1.31,1.21-2.18,1.43
		c-4,1.03-8.85,1.15-8.26,7.07c0.13,1.3-0.34,2.64-1.36,3.46c-0.01,0.01-0.03,0.02-0.04,0.04c-1.12,0.88-2.67,1.02-3.97,0.44
		c-4.9-2.18-9.28-2.21-12.59,2.12c-0.83,1.09-2.11,1.73-3.48,1.66c-11.45-0.55-22.91-0.94-34.33-1.83
		c-4.95-0.38-6.68,1.58-7.62,6.04c-2.43,11.57-8.26,21.52-15.28,30.83c-0.54,0.72-1.32,1.23-2.19,1.47
		c-4.87,1.32-8.83,3.62-9.79,9.11c-0.13,0.74-20.33,0.5-19.8-0.04"/>
	<path d="M680.67,435.7c-1.59,5.56-5.77,7.21-10.25,4.74c-5.99-3.31-4.23-8.69-1.69-13.66C672.46,430.08,673.55,436.93,680.67,435.7
		z"/>
	<path d="M668.76,426.82c-12.33-0.51-14.76-4.04-10.19-14.75C661.96,416.99,665.36,421.9,668.76,426.82z"/>
	<path d="M618,353.27c-12.33-0.51-14.76-4.04-10.19-14.75C611.21,343.43,614.61,348.35,618,353.27z"/>
	<path d="M658.6,412.11c-12.33-0.51-14.76-4.04-10.19-14.75C651.81,402.28,655.21,407.19,658.6,412.11z"/>
	<path d="M628.15,367.98c-12.33-0.51-14.76-4.04-10.19-14.75C621.36,358.15,624.76,363.06,628.15,367.98z"/>
	<path d="M638.3,382.69c-12.33-0.51-14.76-4.04-10.19-14.75C631.51,372.86,634.91,377.77,638.3,382.69z"/>
	<path d="M607.85,338.56c-12.3-0.51-14.72-4-10.22-14.79C601.04,328.7,604.45,333.63,607.85,338.56z"/>
	<path d="M648.45,397.4c-12.33-0.51-14.76-4.04-10.18-14.75C641.66,387.57,645.06,392.48,648.45,397.4z"/>
	<path d="M122.06,540.45c-1.35,7.16-5.66,11-12.93,11.54C108.38,542.47,115.08,541.31,122.06,540.45z"/>
	<path d="M231.17,690.99c-0.14-4.79,3.08-5.57,6.65-5c5.78,0.92,6.09,5.35,5.68,10C239.11,694.99,234.87,693.65,231.17,690.99z"/>
	<path d="M107.49,580.16c9.4,2.46,10.52,7.03,3.55,14.49C106.89,590.54,106.42,585.54,107.49,580.16z"/>
	<path d="M127.3,612.83c-0.32-4.32,2.68-5.42,5.9-5.15c4.99,0.41,6.93,3.77,6.51,8.6C135.1,616.85,130.94,615.75,127.3,612.83z"/>
	<path d="M284.18,698.31c0.29-3.6,0.19-7.38,4.58-8.88c4.39-1.5,7.36,0.66,10,3.77C294.58,696.85,288.97,696.41,284.18,698.31z"/>
	<path d="M860.23,481.62c-6.3,3.4-10.22,1.57-10.69-5.1c-0.14-2,0.16-4.03,0.27-6.05C854.21,473.32,857.14,477.54,860.23,481.62z"/>
	<path d="M196.76,660.79c2.76-2.56,5.67-2.06,8.15,0.13c3.91,3.44,0.84,7.54,0.62,11.37c-0.43-0.14-0.86-0.24-1.31-0.32
		c-2.16-1.11-3.69-2.79-4.53-5.08C199.1,664.66,195.99,663.66,196.76,660.79z"/>
	<path d="M559.35,278.05c-1.54,3.97-4.48,4.85-8.02,3.09c-3.55-1.76-4.24-4.83-2.69-8.42C553.01,272.89,555.82,276.2,559.35,278.05z
		"/>
	<path d="M139.64,479.93c3.81-0.36,5,2.12,5,5.17c0,4.49-2.42,7.03-7.02,7.28c0.21-3.65,0.41-7.3,0.62-10.95
		C138.51,480.75,138.98,480.26,139.64,479.93z"/>
	<path d="M324.68,677.51c-1.58-9.53,0.11-11.12,11.26-10.53c-0.48,2.89-3.93,3.3-4.85,5.83c-1.38,1.79-2.03,4.38-4.96,4.43
		C325.65,677.33,325.16,677.42,324.68,677.51z"/>
	<path d="M871.24,502.84c-7.46-1.19-8.75-5.22-5.28-11.45C868.65,494.78,869.76,498.89,871.24,502.84z"/>
	<path class="st1" d="M780.75,705.79c-2.6,1.27-3.76-0.31-3.93-2.84"/>
	<path class="st1" d="M186.99,310.18c1.62,2.04,6.68,1.61,4.56,6.35C187.77,316.03,183.66,315.77,186.99,310.18z"/>
	<path class="st1" d="M155.52,389.77c0.72,2.48-0.36,4.4-1.93,6.17C149.81,392.72,150.09,391.82,155.52,389.77z"/>
	<path class="st1" d="M163.37,369.88c-0.1,2.29-0.66,4.41-2.36,6.08c-1.69-0.37-2.95-1.16-2.42-3.14
		C159.23,370.39,161.11,369.78,163.37,369.88z"/>
	<path d="M796.01,450.13c-3.53,4.1-5.35,2.71-6.15-1.92C792.33,447.49,794.25,448.56,796.01,450.13z"/>
	<path d="M721.16,441.15c-3.53,4.1-5.35,2.71-6.15-1.92C717.48,438.51,719.4,439.58,721.16,441.15z"/>
	<path d="M528.66,265.31c-3.53,4.1-5.35,2.71-6.15-1.92C524.99,262.66,526.91,263.72,528.66,265.31z"/>
	<path d="M572.91,289.37c-5.1,2.08-4.44-1.59-4.52-4.53C570.72,285.53,571.76,287.5,572.91,289.37z"/>
	<path class="st1" d="M326.13,677.24c1.65-1.48,3.31-2.95,4.96-4.43C330.65,675.64,331.57,680,326.13,677.24z"/>
	<path class="st2" d="M257.48,698.34c3.76-1.78,7.41-1.5,10.95,0.62C264.78,698.75,261.13,698.54,257.48,698.34z"/>
	<path class="st3" d="M139.64,479.93c-0.46,0.5-0.93,1-1.39,1.49c0.19-3.13,0.37-6.27,0.56-9.4
		C140.92,474.47,139.42,477.29,139.64,479.93z"/>
	<path class="st1" d="M199.69,666.88c1.51,1.69,3.02,3.39,4.53,5.08C200.54,672.2,199.04,670.51,199.69,666.88z"/>
	<path class="st1" d="M176.84,296.63c0.96,1.61,1.91,3.23,2.87,4.84C175.25,301.95,177.13,298.64,176.84,296.63z"/>
	<path class="st4" d="M694.83,462.68c14.67,0.29,28.97,4.66,43.73,4.06c2.74-1.56,4.67-0.51,6.17,1.92
		c19.76,2.17,39.52,4.35,59.28,6.52c4.16-2.28,8.22-1.04,11.19,1.7c2.91,2.69,0.29,2.9-2,2.48c-6.78-0.39-13.56-0.77-20.34-1.16
		c-7.24,2.49-13.07,6.4-14.68,14.57c-0.04,0.53-0.07,1.07-0.11,1.6c0.95,1.05,2.24,1.78,2.85,3.14c1.73,4.37,4.54,8.3,5.25,13.08
		c1.18,3.79,3.99,6.55,6.14,9.72c3.81,2.37,6.68,5.57,8.58,9.64c1.5,1.69,2.99,3.37,4.49,5.06c4.17,10.13,11.09,14.8,21.07,14.2
		c1.94-0.93,3.02,1.19,4.67,1.31c2.7-1.42,4.44,0.25,6.17,1.92c1.01,0.58,2.03,1.16,3.04,1.74c3.72-1.75,6.65-0.55,9.11,2.43
		c-0.56,8.01,1.78,18.7-2.47,23.31c-4.45,4.82-15.17,0.52-23.14,0.21c-11.19-0.44-22.36-1.38-33.53-2.1
		c-6.59-3.92-11.88-10.03-19.79-11.74c-0.99-0.71-1.98-1.42-2.97-2.12c-1.71-3.87-3.8-6.91-8.64-3.93
		c-6.28-1.05-12.24-2.92-17.36-6.89c-11.39-2.96-22.91-3.62-34.56-1.97c-5,2.92-10.49,3.7-16.15,3.71
		c-4.32-1.9-9.17-5.75-10.68,2.87c-0.55,0.49-1.11,0.97-1.66,1.46c-9.77-0.89-14.98,7.7-22.77,10.94
		c-55.21-3.06-110.42-6.18-165.63-9.09c-4.39-0.23-4.95-1.92-4.72-5.73c2.05-33.85,4-67.71,5.79-101.58
		c0.22-4.13,1.03-5.83,5.75-5.55c54.94,3.3,109.91,6.12,164.83,9.76c8.94,0.59,17.85,2.68,26.93,2.59
		C691.4,459.19,693.33,460.24,694.83,462.68z"/>
	<path class="st4" d="M200.03,494.65c-0.51-0.21-1.02-0.42-1.53-0.63c-1.88-2.83-0.92-6.07,0.57-8.08
		c5.09-6.91,8.05-15.03,12.64-22.04c6.76-10.32,14.57-20,21.64-30.17c45.35,2.5,90.71,4.98,136.06,7.51
		c30.24,1.69,60.47,3.55,90.72,5.06c4.98,0.25,6.51,1.49,6.17,6.74c-2.15,33.35-3.94,66.73-5.83,100.1
		c-0.19,3.38,0.39,6.52-5.16,6.16c-38.03-2.48-76.08-4.63-114.13-6.89c-5.33-6.11-11.01-11.79-19-14.34
		c-1.59-0.51-2.89-1.18-3.56-2.67c-3.01-6.67-6.92-5.62-11.26-1.39c-6.05-0.71-11.68-2.52-16.51-6.38
		c-11.39-2.96-22.91-3.62-34.56-1.97c-4.29,2.88-9.16,3.19-14.1,3.24c-5.5-3.51-9.74-5.34-15.96,0.88
		c-3.44,3.43-9.96,6.19-15.81,7.58c0.38-9.92,0.77-19.84,1.15-29.76C208.51,502.57,204.66,498.27,200.03,494.65z"/>
	<path class="st5" d="M641.58,431.47c-48.69-2.72-97.38-5.51-146.08-8.07c-4.97-0.26-6.25-2.4-6.94-6.9
		c-3.59-23.22-7.54-46.39-11.37-69.58c2.34-2.14,5.25-2.14,8.11-1.98c32.73,1.88,65.49,3.3,98.17,5.79
		c5.01,0.87,7.84,4.27,10.56,8.33c7.72,11.53,15.66,22.9,23.6,34.28c7.65,10.98,15.05,22.13,22.74,33.09
		C641.37,427.9,642.45,429.49,641.58,431.47z"/>
	<path class="st5" d="M451.64,345.46c3.86,22.9,7.68,45.8,11.59,68.68c0.83,4.83,0.65,7.54-5.88,7.13
		c-44.45-2.81-88.93-5.31-133.41-7.63c-5.2-0.27-6.4-1.84-5.97-6.84c1.21-14.01,1.9-28.06,2.79-42.09
		c8.22-7.04,18.69-8.84,28.53-11.91c21.25-6.63,43.05-10.14,65.36-10.11c4.43,0.39,8.86,0.8,13.25-0.37
		C435.91,342.59,444.23,340.65,451.64,345.46z"/>
	<path class="st6" d="M253.61,409.26c-23.47-1.26-46.94-2.54-70.42-3.76c-3.34-0.17-5.45-0.45-3.86-4.95
		c9.86-27.93,22.53-54.39,39.59-78.7c1.67-2.38,3.23-2.04,5.15-1.94c22.95,1.28,45.9,2.68,68.86,3.83c3.78,0.19,4.81,1.43,4.54,5.14
		c-1.21,16.67-2.15,33.36-3.19,50.04c-1.94,3.63-5.52,5.38-8.81,7.31C274.1,392.88,264.92,402.54,253.61,409.26z"/>
	<path class="st1" d="M781.34,629.5c0.69,7.43,0.21,14.79-1.27,22.09c-0.04,16.56-10.68,26.87-22.03,36.51
		c-6.37,5.41-13.94,8.96-22.08,11.18c-2.56,0.7-5.02,1.42-7.47-0.21c-1.61,0.27-3.22,0.55-4.84,0.82
		c-20.03-0.75-36.25-8.95-49.22-24.3c-11.53-13.64-18.69-28.54-16.58-46.9c0.23-2.02,0.7-4.12-0.18-6.14
		c-0.11-0.49-0.14-0.98-0.1-1.48c0.61-4.6,0.13-9.66,5.22-12.37c0.66-3.72,3.42-6.18,5.46-9.06c4.15-8.63,10.75-14.52,19.8-17.66
		c3.21-1.48,6.42-2.97,9.63-4.45c3.78-3.04,7.9-4.33,12.63-2.49c10.71-1.48,21.04,0.52,31.28,3.38c7.29-0.09,12.4,3.81,16.69,9.18
		c2.95,2.77,5.91,5.53,8.86,8.3C776.68,605.07,783.03,615.59,781.34,629.5z"/>
	<path class="st7" d="M307.61,561.88c2.95,2.77,5.91,5.53,8.86,8.3c9.58,9.15,15.72,19.76,14.17,33.61
		c0.69,7.43,0.21,14.8-1.27,22.1c-0.12,16.49-10.59,26.87-21.98,36.46c-6.17,5.2-13.41,8.76-21.28,10.94
		c-2.82,0.78-5.51,1.41-8.28,0.05c-1.62,0.28-3.24,0.55-4.86,0.83c-11.94-1.07-23.55-2.95-33.65-10.3
		c-17.25-12.56-29.54-28.23-32.44-50.02c-0.75-5.66,1.18-11.34,0.1-17.02c-0.11-0.49-0.15-0.98-0.11-1.47
		c1.43-4.26-0.28-9.85,5.23-12.37c0.66-3.72,3.42-6.18,5.46-9.06c4.15-8.63,10.75-14.52,19.8-17.66c3.21-1.48,6.42-2.97,9.63-4.45
		c3.72-3.26,7.97-3.88,12.61-2.49c10.71-1.47,21.06,0.51,31.3,3.38C298.21,552.61,303.32,556.51,307.61,561.88z"/>
	<path class="st8" d="M555.77,313.43c-1.3,0.01-2.61,0.1-3.91,0.03c-113.37-6.46-226.75-12.93-340.12-19.42
		c-6.2-0.35-11.67-4.65-12.24-9.5c-1.03-8.64,1.64-12.26,9.8-14.77c2.4-0.74,4.57-0.63,6.84-0.53c4.16,0.18,8.32,0.61,12.48,0.94
		c12.04,11.24,27.1,11.5,42.31,12.33c86.18,4.7,172.35,9.73,258.52,14.65c4.42,0.25,8.87,0.34,13.1,1.81
		c5.07,0.56,5.7,8.76,12.11,7.06c1.61,0.21,3.04,0.69,3.58,2.46C558.51,310.67,557.47,312.22,555.77,313.43z"/>
	<path class="st4" d="M545.51,300.53c-97.16-5.54-194.32-11.17-291.49-16.48c-11.09-0.61-19.62-4.32-25.4-13.87
		c15.1,0.77,30.21,1.47,45.31,2.32c75,4.25,150,8.63,225.01,12.66c5.99,0.32,11.43,3.41,17.48,2.47c9.69-1.8,17.52,2,24.59,8.13
		c1.52,1.16,3.04,2.32,4.56,3.48c0.45,0.31,0.6,0.6,0.43,0.88C545.82,300.4,545.66,300.54,545.51,300.53z"/>
	<path class="st9" d="M451.64,345.46c-8.26-0.47-16.52-0.93-24.79-1.4c-4.12,1.75-8.52-1.07-12.63,0.79
		c-26.11,0.07-51.32,5.11-75.91,13.65c-5.86,2.04-11.7,4.14-17.55,6.22c0.56-11.43,1.33-22.85,1.57-34.29
		c0.09-4.51,2.08-4.87,5.76-4.66c38.7,2.3,77.4,4.55,116.11,6.58c4.21,0.22,5.99,1.92,6.5,5.7
		C451.04,340.51,451.33,342.99,451.64,345.46z"/>
	<path class="st8" d="M163.94,471.9c-0.43-12.45,3.5-24.28,5.37-36.4c0.42-2.69,1.42-5.95,6.45-5.5
		c17.08,1.54,34.23,2.32,51.35,3.39c1.38,1.84,0.42,3.49-0.63,4.9c-6.4,8.62-12.48,17.47-19.45,25.66
		c-8.71,3.25-11.18,7.15-10.19,16.13c0.02,1.93-0.72,3.54-2.03,4.91c-4.5,1.08-4.89,4.94-5.75,8.5c-8.74-0.97-17.82,1.21-26.23-2.85
		c2.47-2.7,1.15-5.86,1.06-8.87C163.82,478.47,164.84,475.19,163.94,471.9z"/>
	<path class="st7" d="M483.19,598.38c0.02-1.56,0.18-3.14,0.05-4.68c-0.53-6.03,1.73-7.89,8.06-7.49
		c47.86,3.01,95.74,5.58,143.6,8.48c1.85,0.11,6.66-2.5,5.36,3.37c0.39,4.32-0.96,7.83-4.72,10.24c-2.29,0.93-4.69,0.73-7.08,0.76
		c-45.32-2.14-90.59-5.04-135.88-7.59C489.21,601.27,485.73,601.18,483.19,598.38z"/>
	<path class="st10" d="M483.19,598.38c48.96,2.83,97.93,5.66,146.89,8.49c1.76,2.12,2.51,4.84,4.2,7c0.09,0.33,0.17,0.67,0.26,1.01
		c-1.61,3.44-4.03,4.65-8.05,4.41c-45.81-2.77-91.63-5.44-137.47-7.86C477.62,610.83,484.25,603.1,483.19,598.38z"/>
	<path class="st9" d="M586.7,353.03c-36.5-2.03-73.01-4.06-109.51-6.1c-0.51-12.63-0.51-12.63,12.46-11.89
		c27.01,1.54,54.02,3.24,81.04,4.5c5.94,0.28,10.56,1.58,13.27,7.16C585.66,348.47,588.79,349.61,586.7,353.03z"/>
	<path class="st7" d="M350.65,582.97c-0.4-2.51-1.47-4.85,3.14-4.56c33.21,2.08,66.43,3.95,99.66,5.72
		c4.19,0.22,5.48,1.93,4.91,5.81c-0.34,2.31-0.42,4.66-0.62,6.99c-2.09,1.91-4.69,2.19-7.3,2.04c-31.33-1.84-62.7-2.87-93.97-5.73
		C351.53,591.53,350.08,587.83,350.65,582.97z"/>
	<path class="st10" d="M354.43,591.24c34.44,1.89,68.88,3.79,103.32,5.68c-0.21,12.62-0.21,12.62-12.7,11.91
		c-27.29-1.56-54.57-3.16-81.87-4.62c-4.11-0.22-7.84-0.49-9.15-5.28C352.39,596.28,352.21,593.7,354.43,591.24z"/>
	<path class="st10" d="M185.18,586.08c-1.09,7.27-5.56,8.11-12.06,7.41c-10.61-1.15-21.33-1.28-32.01-1.84
		c-6.35-0.36-9.38-3.67-8.94-10.07c0.03-0.26,0.07-0.51,0.09-0.77c1.13-15.42,1.12-15.42,16.7-13.73
		c9.08,8.52,19.7,12.91,32.29,12.27c1.79-0.09,3.57,0.61,4.88,2.04C186.91,583.17,186.75,584.77,185.18,586.08z"/>
	<path class="st6" d="M253.61,409.26c11.77-12.51,25.96-21.77,40.68-30.34c-0.45,9.37-1.05,18.73-1.26,28.1
		c-0.09,3.8-1.39,4.81-5.11,4.51C276.5,410.59,265.05,409.99,253.61,409.26z"/>
	<path class="st7" d="M801.34,608.69c-0.37-2.47-1.52-4.9,3.12-4.56c16.54,1.2,33.1,2.1,49.66,2.87c4.22,0.2,5.42,2,4.86,5.83
		c-0.33,2.3-0.43,4.64-0.63,6.96c-2.09,1.89-4.68,2.16-7.29,2c-14.72-0.89-29.5-1-44.15-2.91
		C802.1,617.1,800.3,613.67,801.34,608.69z"/>
	<path d="M586.7,353.03c0.59-2.76-2.66-3.85-2.74-6.32c11.68,0.68,11.76,0.67,12.74,12.4c0.14,1.66,0.52,2.33,2.01,2.53
		c1.54,0.21,3.2,0.11,4.62,0.65c7.15,2.67,1.14,11.84,4.9,13.35c5.57,2.24,10.65,2.99,9.24,10.41c-0.65,3.44-0.6,5.61,3.71,5.22
		c0.75-0.07,1.58,0.1,2.3,0.37c7.17,2.73,1.48,11.81,4.92,13.36c5.28,2.37,10.91,2.77,9.34,10.29c-0.89,4.25,0.33,5.08,4.32,5.6
		c5.16,0.67,7.57,5.1,5.78,9.8c-1.35,3.55-3.52,5.67-6.25,0.8c-16.68-24.49-33.33-48.99-50.08-73.44
		C590.21,356.15,588.31,354.69,586.7,353.03z"/>
	<path class="st10" d="M805.12,616.96c17.74,0.94,35.49,1.88,53.23,2.82c-0.03,1.06-0.06,2.12-0.1,3.18
		c-0.72,5.8-3.93,8.78-9.84,8.71c-12.07-0.63-24.14-1.42-36.21-1.78c-3.98-0.12-6.2-1.74-7.47-5.23
		C803.08,621.99,802.9,619.41,805.12,616.96z"/>
	<path class="st5" d="M828.09,521.04c-1.95-1.27-3.89-2.55-5.84-3.82c-4.63-1.77-7.28-5.68-9.92-9.5c-0.82-1.18-2.47-3.35,1-3.73
		c9.05,0.6,18.11,1.13,27.15,1.88c1.85,0.15,4.53-1.05,5.44,1.54c2.26,6.44,4.78,12.83,3.83,19.96c-0.38,2.81-2.06,2.23-3.85,2.33
		c-2.15,0.12-3.36-2.64-5.68-1.66c-4.26,0.41-7.07-2.55-10.34-4.44C829.11,522.85,828.85,521.77,828.09,521.04z"/>
	<path class="st4" d="M194.3,484.62c0.62-1.53,1.24-3.07,1.86-4.6c1.91-6.52,4.6-12.54,10.34-16.68
		c5.56-10.89,14.89-19.17,20.61-29.95c2.08,0.11,4.15,0.23,6.23,0.34c0.14,3.56-0.75,7-3.41,9.26c-5.47,4.64-7.61,11.77-12.52,16.53
		c-5.86,5.67-6.42,14.02-11.36,19.77c-3.81,4.44-6.36,9.14-7.55,14.73c-2.6-0.15-5.21-0.29-7.81-0.44
		C188.86,489.37,190.92,486.73,194.3,484.62z"/>
	<path d="M728.51,699.06c24.33-5.49,42.27-18.31,49.75-43.21c0.44-1.47,1.2-2.84,1.82-4.26c5.05,7.87,3.62,17.45-3.79,23.5
		c-1.76,1.44-2.9,3.06-3.2,5.09c-0.94,6.25-7.17,3.72-9.91,6.24c-2.55,2.35-0.72,7.84-6.65,8.88c-6.59,1.15-10.77,7.98-18.49,8.14
		C733.48,703.53,730.57,703.03,728.51,699.06z"/>
	<path d="M277.84,673.35c24.32-5.48,42.23-18.33,49.72-43.2c0.44-1.47,1.2-2.84,1.82-4.26c5.01,9.97,3.82,16.11-4.46,24.08
		c-1.06,1.02-1.65,2.56-2.35,3.91c-3.39,6.57-10.7,9.02-15.65,14.14c-3.88,4.01-10.12,8.78-17.81,9.37
		C284.06,677.76,280.68,677.37,277.84,673.35z"/>
	<path class="st10" d="M207,596.84c2.67,5.24-0.41,10.76,0.79,16.07c6.61,29.3,24.12,48.87,52.44,58.83
		c4.15,1.46,8.95-0.67,12.75,2.44c-6.75-0.33-13.51-0.65-20.26-0.98c-12.88-1.86-23.44-7.48-30.46-18.83
		c-0.52-0.59-1.05-1.17-1.57-1.76c-10.48-8.26-14.49-19.56-15.24-32.4C205.97,612.42,206.49,604.63,207,596.84z"/>
	<path class="st10" d="M658.14,614.77c2.4,7.94,0.01,16.24,2.83,24.42c8.68,25.21,25.5,41.73,50.4,50.47
		c4.14,1.45,8.92-0.56,12.75,2.45c-6.76-0.33-13.51-0.66-20.26-0.99c-12.74-2.08-23.43-7.47-30.45-18.81
		c-0.53-0.59-1.05-1.17-1.58-1.77c-10.46-8.27-14.61-19.5-15.22-32.4L658.14,614.77z"/>
	<path class="st7" d="M185.6,581.45c-4.13-0.23-8.25-0.67-12.38-0.64c-10.78,0.08-18.79-4.54-24.26-13.74
		c12.31,0.62,24.62,1.21,36.92,1.88c2.15,0.12,4.96-0.46,4.89,3.19C189.58,575.54,190.11,579.9,185.6,581.45z"/>
	<path class="st11" d="M173.62,518.24c12.5,0.06,12.5,0.06,11.81,12.2c-0.03,0.52-0.06,1.03-0.09,1.55
		c-0.69,12.14-0.69,12.14-13.12,10.78C168.89,534.38,169.35,526.2,173.62,518.24z"/>
	<path class="st12" d="M173.62,518.24c-0.47,8.18-0.93,16.35-1.4,24.53c-12.61-0.06-12.61-0.06-11.91-12.21
		c0.03-0.52,0.06-1.03,0.09-1.55C161.08,516.87,161.08,516.87,173.62,518.24z"/>
	<path class="st4" d="M307.73,533.23c-0.18-3.67,2.16-5.17,5.24-5.4c2.78-0.2,5.18,1.31,6.05,3.96c1.06,3.28,2.33,5.12,6.33,4.51
		c2.23-0.34,4.41,1.33,5.59,3.55c1.21,2.29,2.09,4.65,5.4,4.75c5.31,0.16,5.16,4,4.84,7.81c-2.1,0.05-4.19,0.11-6.29,0.16
		c-6.11,1.29-7.52-4.15-10.5-7.33c-3.6-4.59-8.54-7.31-13.67-9.75C308.93,535.76,308.03,534.89,307.73,533.23z"/>
	<path class="st4" d="M210.41,537.35c3.8-3.84,6.48-9.71,13.69-7.44c0.45,0.14,1.53-1.11,2.07-1.89c4.93-7.18,9.84-7.23,15.92-0.11
		c-1.14,1.85-2.69,2.57-4.81,1.82c-6,1.69-11.07,5.13-16.19,8.5c-3.39,2.89-5.86,7.33-11.32,6.75
		C209.99,542.44,210.2,539.9,210.41,537.35z"/>
	<path d="M813.19,479.37c0.4-0.74,3.56-0.24,1.63-1.36c-3.11-1.79-7.16-1.97-10.81-2.83c0.02-0.26,0.04-0.51,0.06-0.77
		c0.42-5.26,4.4-6.2,7.71-4.38c5.21,2.86,14.98-1.78,15.49,8.91c0.17,3.56-1.87,6.07-5.27,6.64
		C817.3,486.4,813.93,484.57,813.19,479.37z"/>
	<path d="M781.34,629.5c-0.96-12.79-7.8-23.1-14.17-33.62c3.53-2,7.46-1.72,8.27,2.21c0.99,4.86,4.4,7.34,7.09,10.64
		C788.01,615.47,787.64,621.76,781.34,629.5z"/>
	<path d="M330.65,603.78c-1.07-12.74-7.76-23.12-14.17-33.61c3.1-1.67,6.83-2.12,7.87,1.56c1.64,5.77,6.16,9.25,9.04,13.95
		C337.48,592.35,335.9,598.41,330.65,603.78z"/>
	<path d="M541.01,295.76c-8.14-2.9-15.89-6.93-24.59-8.13c0.59-6.63,4.57-8.09,10.29-6.61C540.23,284.51,541.54,285.9,541.01,295.76
		z"/>
	<path d="M656.16,645.93c3.39,11.59,7.38,22.9,15.23,32.4c-1.91,0.75-4.46,2.36-5.74,0.31c-5.25-8.44-12.27-16.12-12.92-26.77
		C652.56,649.24,655.19,648.02,656.16,645.93z"/>
	<path d="M683.18,680.67c5.75,6.04,13.03,9.58,20.54,12.76c-4.13,2.32-12.05,0.65-14.76-3.34c-1.02-1.5-1.84-2.62-3.75-3.24
		C682.21,685.87,681.15,683.63,683.18,680.67z"/>
	<path d="M205.46,620.21c3.41,11.59,7.39,22.9,15.24,32.4c-1.49,0.35-3.14,1.29-4.43,0.93c-5.21-1.46-15.86-24.08-13.69-28.89
		C203.28,623.07,205.41,622.3,205.46,620.21z"/>
	<path d="M222.27,654.37c8.65,8.7,19.03,14.6,30.45,18.83c-7.61,3.54-17.6,0.91-22.57-6.31c-1.33-1.93-2.88-2.55-4.86-3.34
		C220.91,661.8,219.26,658.75,222.27,654.37z"/>
	<path d="M688.07,581.98c-7.2,5.21-13.9,10.99-19.8,17.66c-3.86-6.83-2.81-9.56,4.53-10.73c2.46-0.39,3.43-1.25,4.1-3.66
		C678.89,578.09,681.72,577.36,688.07,581.98z"/>
	<path d="M237.38,556.26c-7.2,5.21-13.9,10.99-19.8,17.66c-3.71-6.5-2.71-9.46,4.19-10.67c2.77-0.49,3.73-1.34,4.53-4.04
		C228.29,552.49,231.34,551.84,237.38,556.26z"/>
	<path d="M778.17,492.78c-1.75-9.19,2.61-14.42,14.68-14.57C792.47,487.62,785.14,490.02,778.17,492.78z"/>
	<path d="M813.33,503.98c0.12,6.33,6.76,8.28,8.92,13.23c-8.66,2.52-15.87-2.25-15.35-10.1
		C807.22,502.22,809.34,501.26,813.33,503.98z"/>
	<path class="st4" d="M826.45,549.21c-1.06,1.62-2.48,2.51-4.49,2.6c-7.08,0.33-16.94-9.62-16.58-16.8
		c1.48,0.73,2.97,1.46,4.45,2.19c4.42,1.59,7.75,4.95,11.79,7.17c0.79,0.74,1.09,1.83,1.85,2.59
		C824.46,547.71,825.45,548.46,826.45,549.21z"/>
	<path d="M758.3,587.59c-5.56-3.06-11.13-6.12-16.69-9.18c-0.12-3.53,1.96-5.57,5.11-5.16c5.41,0.7,9.17,4.25,11.42,9.08
		C758.81,583.79,758.28,585.82,758.3,587.59z"/>
	<path d="M307.61,561.88c-5.56-3.06-11.13-6.12-16.69-9.18c0.38-5.07,3.32-6.46,7.45-4.32
		C303.68,551.15,309.02,554.32,307.61,561.88z"/>
	<path class="st4" d="M655.71,570.35c2.27-6.95,14.69-13.52,21.26-11.27c0.48,0.17,1,0.22,1.5,0.33c-2.23,1.51-4.46,3.02-6.7,4.53
		c-3.39,3.05-6.08,7.21-11.4,7.2C658.83,570.88,657.27,570.62,655.71,570.35z"/>
	<path d="M848.41,631.67c4.14-1.94,7.35-4.91,9.85-8.71c3.77,1.02,4.53,3.36,3.52,6.98c-1.03,3.67-3.15,5.49-6.87,6.09
		C851.17,636.63,848.97,635.52,848.41,631.67z"/>
	<path d="M689.69,553.89c5.88-0.02,11.22-3.69,17.28-2.51c-1.38,6.78-6.98,7.84-12.38,8.73c-3.3,0.54-6.38-0.32-6.62-4.66
		C688.1,554.44,688.71,553.95,689.69,553.89z"/>
	<path d="M636.28,607.16c1.33-3.03,2.65-6.07,3.98-9.1c3.17,1.96,6.46,3.85,4.54,8.52c-1.91,4.64-3.65,9.49-10.27,8.3
		c0,0-0.4,0.06-0.4,0.06C632.7,611.75,634.19,609.37,636.28,607.16z"/>
	<path d="M237.28,529.73c1.6-0.61,3.21-1.21,4.81-1.82c4.61-1.49,9.26-2.77,14.19-2.25c-1.87,7.33-7.84,8.27-13.94,8.72
		C239.33,534.61,237.42,532.97,237.28,529.73z"/>
	<path class="st4" d="M770.51,566.3c3.95-2.15,7.72-3.25,9.39,2.55c0.77,2.67,2.74,2.76,4.78,2.82c4.2,0.13,6.09,2.17,5.62,6.37
		c-1.58,0.08-3.15,0.17-4.73,0.25c-6.11,1.29-7.52-4.15-10.5-7.33C774.67,568.31,771.51,568.36,770.51,566.3z"/>
	<path d="M132.17,581.57c1.53,4.64,4.53,7.98,8.94,10.06c-1.23,3.79-3.65,4.25-7.23,3.13c-3.38-1.06-5.02-2.95-5.69-6.4
		C127.48,584.67,128.26,582.33,132.17,581.57z"/>
	<path d="M741.53,553.35c6.67,0.38,12.16,4.32,18.36,6.12c0.96,0.18,1.51,0.72,1.53,1.73C754.44,565.73,744.52,561.81,741.53,553.35
		z"/>
	<path d="M307.73,533.23c0.99,0.75,1.98,1.51,2.98,2.26c-6.96,4.53-16.88,0.6-19.86-7.86C296.99,527.94,302.09,531.4,307.73,533.23z
		"/>
	<path d="M354.43,591.24c-0.13,2.56-0.26,5.13-0.39,7.69c-6.26-0.52-6.69-5.79-7.83-10.11c-0.86-3.27,0.9-5.46,4.45-5.85
		C351.91,585.73,353.17,588.49,354.43,591.24z"/>
	<path d="M786.17,510.59c-3.98-3.45-4.88-8.49-6.72-13.04c2.14-3.23,4.88-2.28,7.65-1.09C789.34,501.34,791.95,506.24,786.17,510.59
		z"/>
	<path d="M805.12,616.96c-0.13,2.56-0.26,5.13-0.39,7.69c-6.26-0.52-6.69-5.79-7.83-10.11c-0.86-3.27,0.89-5.47,4.45-5.85
		C802.6,611.44,803.86,614.2,805.12,616.96z"/>
	<path d="M185.6,581.45c2.2-2.84,2.06-6.97,5.18-9.3c1.99,2.79,5.28,4.81,3.18,9.4c-1.93,4.21-4.92,4.82-8.77,4.53
		C185.32,584.53,185.46,582.99,185.6,581.45z"/>
	<path d="M821.91,545.74c-4.69-1.91-9.49-3.67-12.08-8.54c0.58-0.55,1.15-1.1,1.73-1.65c3.2-1.01,6.33-0.83,9.39,0.54
		c0.49,0.55,0.98,1.1,1.48,1.65C823.41,540.48,823.35,543.15,821.91,545.74z"/>
	<path d="M557.66,308.93c-0.35-1.62-1.73-1.47-2.9-1.67c-2.74-1.47-6.1-2.33-6.18-6.38c1.09-4.64,4.62-3.03,7.37-2.63
		c3.18,0.47,3.65,3.07,3.48,5.81c-0.11,1.77-0.24,3.54-0.35,5.31C558.41,309.83,557.93,309.71,557.66,308.93z"/>
	<path d="M660.38,571.14c3.92-2.22,6.48-6.57,11.4-7.2c-0.61,9.82-2.65,12-9.34,10.04C661.01,573.56,660.57,572.45,660.38,571.14z"
		/>
	<path d="M200.03,494.65c7.11,1.4,10.96,5.71,11.53,12.94C204.72,505.95,200.88,501.64,200.03,494.65z"/>
	<path d="M209.78,544.98c4.11-1.68,6.48-6.29,11.32-6.75c-0.82,3.54,1.42,8.45-3.68,10.09C214.4,549.29,211.08,548.91,209.78,544.98
		z"/>
	<path d="M849.44,556.62c-3.04-0.81-6.08-1.62-9.11-2.43c0.08-5.46,3.48-6.75,7.76-5.24C852.13,550.38,852.67,553.41,849.44,556.62z
		"/>
	<path d="M775.07,570.96c4.92,0.4,5.57,6.94,10.5,7.33c-1.35,4.05-4.56,3.65-7.41,2.57C773.25,578.99,775,574.62,775.07,570.96z"/>
	<path d="M829.65,522.26c4.05,0.96,7.12,3.72,10.57,5.76c-3.38,4.83-7.03,5.39-11,0.68C828.23,526.48,828.29,524.33,829.65,522.26z"
		/>
	<path d="M710.33,575.03c-4.21,0.83-8.42,1.66-12.63,2.49c-0.17-3.44,0.75-6.16,4.57-7.02C706.33,569.59,708.6,571.82,710.33,575.03
		z"/>
	<path d="M800.89,529.95c-3.8-2.38-6.59-5.65-8.58-9.64c2.82-0.08,5.55-2.39,8.48,0.57C804.01,524.15,801.53,526.94,800.89,529.95z"
		/>
	<path class="st4" d="M689.69,553.89c-0.58,0.52-1.15,1.04-1.73,1.56c-2.61,0.84-5.22,1.67-7.83,2.51c-2.56-2.61-2.11-5.5,0.71-6.94
		C684.21,549.3,687.82,549.64,689.69,553.89z"/>
	<path d="M324.38,545.24c4.92,0.4,5.57,6.94,10.5,7.33c-1.56,4.5-5.24,2.86-7.77,2.01C322.32,552.98,324.52,548.62,324.38,545.24z"
		/>
	<path d="M259.62,549.32c-4.2,0.83-8.41,1.66-12.61,2.49c0.03-2.93,0.31-5.51,3.74-6.78C255.42,543.29,257.09,547.02,259.62,549.32z
		"/>
	<path d="M662.81,608.7c-1.74,4.12-3.48,8.24-5.22,12.37C652.84,612.62,654.3,609.17,662.81,608.7z"/>
	<path d="M212.12,582.99c-1.75,4.12-3.49,8.25-5.23,12.37C202.61,586.04,203.7,583.46,212.12,582.99z"/>
	<path class="st8" d="M548.58,300.88c2,2.19,5.01,3.39,6.18,6.38c-7.28,3.53-8.22-1.67-9.26-6.73c0.02-0.43,0.04-0.86,0.06-1.29
		C546.57,299.79,547.58,300.33,548.58,300.88z"/>
	<path class="st4" d="M761.42,561.21c-0.51-0.58-1.02-1.16-1.53-1.73c0.5-3.2,2.67-3.64,5.11-2.64c3.43,1.4,2.6,4.57,2.53,7.34
		C765.5,563.18,763.46,562.19,761.42,561.21z"/>
	<path class="st8" d="M194.3,484.62c-1.21,2.99-2.41,5.97-3.62,8.96c-0.54-0.03-1.08-0.06-1.61-0.09
		C186.8,488.16,187.11,484.36,194.3,484.62z"/>
	<path d="M744.73,468.66c-2.06-0.64-4.12-1.28-6.17-1.92c0.28-1.91,0.01-4.5,3.06-3.95C744.84,463.36,744.87,466.07,744.73,468.66z"
		/>
	<path d="M694.83,462.68c-2.06-0.64-4.12-1.28-6.17-1.92c0.28-1.91,0.01-4.5,3.06-3.95C694.95,457.38,694.97,460.08,694.83,462.68z"
		/>
	<path d="M837.28,552.45c-2.54,0.92-3.85-2.15-6.17-1.92c0.32-1.59-0.23-4.18,2.46-3.69C836.34,547.34,837.84,549.4,837.28,552.45z"
		/>
	<path class="st8" d="M164.57,482.87c2.61,3.3,2.58,6.01-1.73,7.77c0.14-2.58,0.29-5.16,0.43-7.74
		C163.68,482.2,164.12,482.15,164.57,482.87z"/>
	<path class="st8" d="M557.66,308.93c0.47,0.15,0.94,0.29,1.41,0.44c0.11,1.74,3.33,2.63,1.83,4.28c-0.74,0.81-3.37-0.09-5.14-0.21
		C556.4,311.93,557.03,310.43,557.66,308.93z"/>
	<path class="st13" d="M164.57,482.87c-0.43,0.01-0.87,0.02-1.3,0.03c0.22-3.67,0.45-7.33,0.67-11
		C166.3,475.43,164.23,479.22,164.57,482.87z"/>
	<path d="M787.1,496.46c-2.64-0.26-5.26-0.38-7.65,1.09c-0.46-1.06-0.93-2.12-1.39-3.18C781.08,495.05,784.61,493.49,787.1,496.46z"
		/>
	<path d="M820.95,536.08c-3.13-0.18-6.26-0.36-9.39-0.54C814.82,533.35,817.95,533.53,820.95,536.08z"/>
	<path d="M821.91,545.74c0.17-2.67,0.35-5.34,0.52-8.01c2.67,2.81,0.72,6.14,1.05,9.22C822.44,547.2,822.07,546.6,821.91,545.74z"/>
	<path d="M829.65,522.26c-0.14,2.15-0.29,4.29-0.43,6.44c-2.47-2.24-0.91-5.09-1.13-7.66C829.13,520.77,829.49,521.39,829.65,522.26
		z"/>
	<path d="M563.82,493.86c-3.1,13.78-3.1,13.78-16.43,10.03c-9.28-2.61-18.46-5.66-27.86-7.67c-6.4-1.37-8.34-3.9-5.47-9.89
		c0.89-1.86,1.33-3.93,1.98-5.91c2.47-1.46,5.07-1,7.6-0.33c11.34,2.99,22.63,6.17,33.87,9.53
		C560.01,490.37,562.47,491.33,563.82,493.86z"/>
	<path d="M567.55,492.54c-15.59-5.55-31.17-11.1-46.76-16.65c3.14-10.53,3.14-10.53,13.07-7c9.33,3.32,18.66,6.64,27.98,9.96
		C571.77,482.4,571.77,482.4,567.55,492.54z"/>
	<path d="M376.57,477.75c-0.06,14.13-0.06,14.13-13.88,13.34c-9.62-0.55-19.25-1.55-28.86-1.49c-6.55,0.04-8.98-2.02-7.47-8.48
		c0.47-2.01,0.45-4.13,0.66-6.2c2.1-1.96,4.74-2.07,7.35-1.96c11.72,0.48,23.43,1.15,35.13,2
		C372.1,475.16,374.71,475.57,376.57,477.75z"/>
	<path d="M376.57,477.75c-16.52-0.94-33.04-1.88-49.55-2.83c0.05-10.99,0.05-10.99,10.57-10.39c9.89,0.56,19.77,1.13,29.66,1.69
		C377.77,466.83,377.77,466.83,376.57,477.75z"/>
	<path class="st14" d="M414.22,344.85c4.05-2.81,8.43-0.45,12.63-0.79C422.8,346.87,418.42,344.47,414.22,344.85z"/>
	<path d="M681.92,634.49c1.57-22.23,17.63-36.5,40.37-34.57c22.06,1.87,35.35,17.85,34.26,38.13c-1.39,25.95-22.47,38-41.79,36.51
		C696.98,673.18,679.13,654.72,681.92,634.49z"/>
	<path d="M231.2,609.21c1.56-23.78,18.9-37.1,40.75-34.97c21.79,2.13,34.49,17.45,33.97,37.7c-0.63,24.84-21.72,38.71-42.19,36.87
		C246.01,647.22,228.7,629.01,231.2,609.21z"/>
	<path class="st8" d="M206.5,463.34c-3.55,5.49-5.81,11.8-10.34,16.68c-5.33-3.31-1-6.74,0.13-9.85
		C197.94,465.64,200.62,461.9,206.5,463.34z"/>
	<path class="st10" d="M636.28,607.16c0.47,2.92-1.71,5.1-2.13,7.78c-3.63-1.54-4.88-4.29-4.06-8.07
		C632.15,606.96,634.21,607.06,636.28,607.16z"/>
	<path class="st10" d="M718.05,649.5c-6.33-0.26-11.32-5.93-11.15-12.69c0.17-7.1,5.8-12.67,12.41-12.3
		c6.28,0.36,12.57,6.74,12.58,12.77C731.88,643.4,724.67,649.77,718.05,649.5z"/>
	<path class="st10" d="M268.49,598.8c6.57,0.29,13.16,7.27,12.67,13.42c-0.47,5.92-7.36,11.75-13.67,11.57
		c-6.63-0.19-11.73-6.25-11.24-13.34C256.72,603.69,262.15,598.52,268.49,598.8z"/>
	<path class="st9" d="M219.74,319.83c38.7,2.3,37.38,2.25,76.09,4.28c0.17,0.01,0.71-0.03,0.83,0.22c0.38,0.84-4.45,3.88-9.36,6.73
		c-5.03-0.03-10.64,0.4-16.65,1.65c-1.23,0.26-2.42,0.53-3.58,0.83c-0.13,1.29-0.27,2.59-0.4,3.88c-1.19,0.27-2.38,0.55-3.58,0.83
		c-7.38,1.76-14.49,3.72-21.34,5.82c13.32,4.8,19.84,7.71,19.56,8.72c-0.03,0.09-0.1,0.17-0.24,0.23
		c-12.02-0.39-24.04-0.77-36.05-1.16c-3.27,4.23-6.54,8.45-9.82,12.68c-5.06-3.9-10.12-7.81-15.18-11.71"/>
	<path class="st15" d="M242.09,472.94c0,0,0.96-36.39,17.53-16.21s31.85,18.32,31.85,18.32s14.98-4.8,6.05,10.45
		s-44.94-1.31-34.56,16.99C262.95,502.48,236.6,531.91,242.09,472.94z"/>
	<path class="st15" d="M465.97,525.82c0,0-29.52,26.25-17.38-31.72c0,0,5.08-36.05,19.25-14.12"/>
	<path class="st15" d="M307.73,533.23c0,0,34.21-50.18,46.7-1.27c0,0,37.44,0.51,31.77,26l-53.83-1.33L307.73,533.23z"/>
	<path class="st16" d="M601.64,479.24"/>
	<line class="st17" x1="734.94" y1="494.08" x2="716.1" y2="525.69"/>
	<line class="st17" x1="746.6" y1="501.03" x2="727.76" y2="532.64"/>
	<line class="st17" x1="723.07" y1="495.7" x2="749.96" y2="520.82"/>
	<line class="st17" x1="713.8" y1="505.62" x2="740.7" y2="530.74"/>
	<path class="st18" d="M601.36,571.14c0,0,19.65-24.06,0-32.92c-16.47-7.42-21.49-24.15-24.4-30.64"/>
	<path class="st18" d="M606.76,544.23c4.3-26.34,26.38-34.25,26.38-34.25"/>
	<path class="st15" d="M516.08,534.21c0,0,0.43-24.13,17.17-10.62c16.75,13.51-5.39,2.66-1.95,15.72
		C534.74,552.36,499.41,551.22,516.08,534.21z"/>
	<path class="st15" d="M671.78,494.02c0,0-27.35-5.97-8.85-16.96c14.13-8.4,16.61,4.47,29.99,6.23
		C706.31,485.06,688.66,527.11,671.78,494.02z"/>
	<path class="st15" d="M404.71,383.08c0,0,0.43-24.13,17.17-10.62s6.34,3.49-1.95,15.72C412.36,399.36,388.04,400.09,404.71,383.08z
		"/>
	<path class="st15" d="M542.57,369.68c0,0,15.24-19.06,31.99-5.55s2.9,25.63,6.34,38.68C584.33,415.87,525.9,386.69,542.57,369.68z"
		/>
	<path class="st15" d="M258.92,273.11c0,0,0.43-24.13,17.17-10.62c16.75,13.51-5.39,2.66-1.95,15.72
		C277.58,291.26,242.25,290.12,258.92,273.11z"/>
	<path class="st18" d="M470.7,311.08c-16.47-7.42-21.49-24.15-24.4-30.64"/>
</g>
</svg>
